# Blender 5.1.1
# www.blender.org
mtllib book2.mtl
o Plane.001
v -0.829496 0.908798 1.384898
v 0.829496 0.908798 1.438685
v -0.829496 1.147638 -1.438685
v 0.829496 1.147638 -1.438685
v -0.829496 0.908798 -0.372132
v -0.829496 0.966959 -1.211550
v -0.829496 0.908798 -0.791841
v 0.829496 0.966959 -1.211550
v 0.829496 0.908798 -0.372132
v 0.829496 0.908798 -0.791841
v -0.829496 0.908798 0.910653
v 0.829496 0.908798 0.910653
v -0.370957 0.908798 1.310734
v -0.370957 1.147638 -1.438685
v -0.370957 0.966959 -1.211550
v -0.370957 0.908798 -0.791841
v -0.370957 0.908798 -0.372132
v -0.370957 0.908798 0.910653
v -0.098355 0.908798 1.438685
v -0.098355 0.908798 -0.791841
v -0.098355 0.908798 -0.372132
v -0.098355 1.147638 -1.438685
v -0.098355 0.966959 -1.211550
v -0.098355 0.908798 0.910653
vn -0.0000 1.0000 -0.0000
vn -0.0000 0.7826 0.6225
vn -0.0000 0.9192 0.3939
vn -0.0000 0.9976 0.0688
vt 0.276396 0.915935
vt 0.000000 0.915935
vt 0.000000 0.771312
vt 0.276396 0.771312
vt 0.000000 0.628090
vt 0.276396 0.628090
vt 0.440714 0.190353
vt 1.000000 0.190353
vt 1.000000 0.628090
vt 0.440714 0.628090
vt 0.440714 0.915935
vt 1.000000 0.915935
vt 1.000000 0.997800
vt 0.440714 0.997800
vt 0.440714 0.010167
vt 1.000000 0.010167
vt -0.000000 0.028522
vt 0.276396 0.053829
vt 0.276396 0.190353
vt -0.000000 0.190353
vt 0.276396 0.997800
vt 0.000000 0.997800
vt 0.440714 0.771312
vt 1.000000 0.771312
s 1
usemtl Material.004
f 15/1/3 6/2/3 7/3/4 16/4/4
f 16/4/4 7/3/4 5/5/1 17/6/1
f 24/7/1 12/8/1 9/9/1 21/10/1
f 23/11/3 8/12/3 4/13/2 22/14/2
f 19/15/1 2/16/1 12/8/1 24/7/1
f 1/17/1 13/18/1 18/19/1 11/20/1
f 6/2/3 15/1/3 14/21/2 3/22/2
f 11/20/1 18/19/1 17/6/1 5/5/1
f 20/23/4 16/4/4 17/6/1 21/10/1
f 23/11/3 15/1/3 16/4/4 20/23/4
f 8/12/3 23/11/3 20/23/4 10/24/4
f 10/24/4 20/23/4 21/10/1 9/9/1
f 13/18/1 19/15/1 24/7/1 18/19/1
f 15/1/3 23/11/3 22/14/2 14/21/2
f 18/19/1 24/7/1 21/10/1 17/6/1
