# This file uses centimeters as units for non-parametric coordinates.

mtllib 01A_low.mtl
g default
v 0.923880 6.703725 -0.382683
v 0.707107 6.703725 -0.707106
v 0.382684 6.703725 -0.923879
v 0.000001 6.703725 -1.000000
v -0.382683 6.703725 -0.923880
v -0.707106 6.703725 -0.707107
v -0.923879 6.703725 -0.382684
v -1.000000 6.703725 -0.000000
v -0.923880 6.703725 0.382683
v -0.707107 6.703725 0.707107
v -0.382684 6.703725 0.923879
v -0.000000 6.703725 1.000000
v 0.382683 6.703725 0.923880
v 0.707107 6.703725 0.707107
v 0.923880 6.703725 0.382683
v 1.000000 6.703725 0.000000
v 0.923880 11.362314 -0.382683
v 0.707107 11.362314 -0.707106
v 0.382684 11.362314 -0.923879
v 0.000001 11.362314 -1.000000
v -0.382683 11.362314 -0.923880
v -0.707106 11.362314 -0.707107
v -0.923879 11.362314 -0.382684
v -1.000000 11.362314 -0.000000
v -0.923880 11.362314 0.382683
v -0.707107 11.362314 0.707107
v -0.382684 11.362314 0.923879
v -0.000000 11.362314 1.000000
v 0.382683 11.362314 0.923880
v 0.707107 11.362314 0.707107
v 0.923880 11.362314 0.382683
v 1.000000 11.362314 0.000000
v 0.000000 11.362314 0.000000
v 0.520940 6.703725 0.520940
v 0.680641 6.703725 0.281931
v 0.281931 6.703725 0.680642
v -0.000000 6.703725 0.736721
v -0.281931 6.703725 0.680641
v -0.520940 6.703725 0.520940
v -0.680642 6.703725 0.281931
v -0.736721 6.703725 -0.000000
v -0.680641 6.703725 -0.281931
v -0.520940 6.703725 -0.520941
v -0.281931 6.703725 -0.680642
v 0.000000 6.703725 -0.736721
v 0.281931 6.703725 -0.680641
v 0.520941 6.703725 -0.520940
v 0.680642 6.703725 -0.281931
v 0.736721 6.703725 0.000000
v 0.520940 6.067382 0.520940
v 0.680641 6.067382 0.281931
v 0.281931 6.067382 0.680642
v -0.000000 6.067382 0.736721
v -0.281931 6.067382 0.680641
v -0.520940 6.067382 0.520940
v -0.680642 6.067382 0.281931
v -0.736721 6.067382 -0.000000
v -0.680641 6.067382 -0.281931
v -0.520940 6.067382 -0.520941
v -0.281931 6.067382 -0.680642
v 0.000000 6.067382 -0.736721
v 0.281931 6.067382 -0.680641
v 0.520941 6.067382 -0.520940
v 0.680642 6.067382 -0.281931
v 0.736721 6.067382 0.000000
v 0.430744 6.067382 0.430744
v 0.562794 6.067382 0.233117
v 0.233117 6.067382 0.562794
v -0.000000 6.067382 0.609164
v -0.233117 6.067382 0.562794
v -0.430744 6.067382 0.430744
v -0.562794 6.067382 0.233117
v -0.609164 6.067382 -0.000000
v -0.562794 6.067382 -0.233117
v -0.430744 6.067382 -0.430744
v -0.233117 6.067382 -0.562794
v 0.000000 6.067382 -0.609164
v 0.233117 6.067382 -0.562794
v 0.430744 6.067382 -0.430744
v 0.562794 6.067382 -0.233117
v 0.609164 6.067382 0.000000
v 0.430744 6.228516 0.430744
v 0.562794 6.228516 0.233117
v 0.233117 6.228516 0.562794
v -0.000000 6.228516 0.609164
v -0.233117 6.228516 0.562794
v -0.430744 6.228516 0.430744
v -0.562794 6.228516 0.233117
v -0.609164 6.228516 -0.000000
v -0.562794 6.228516 -0.233117
v -0.430744 6.228516 -0.430744
v -0.233117 6.228516 -0.562794
v 0.000000 6.228516 -0.609164
v 0.233117 6.228516 -0.562794
v 0.430744 6.228516 -0.430744
v 0.562794 6.228516 -0.233117
v 0.609164 6.228516 0.000000
v 0.378201 6.228516 0.378201
v 0.494143 6.228516 0.204681
v 0.204681 6.228516 0.494143
v -0.000000 6.228516 0.534857
v -0.204681 6.228516 0.494143
v -0.378201 6.228516 0.378201
v -0.494143 6.228516 0.204681
v -0.534857 6.228516 -0.000000
v -0.494143 6.228516 -0.204681
v -0.378201 6.228516 -0.378201
v -0.204681 6.228516 -0.494143
v 0.000000 6.228516 -0.534857
v 0.204681 6.228516 -0.494143
v 0.378201 6.228516 -0.378201
v 0.494143 6.228516 -0.204681
v 0.534857 6.228516 0.000000
v 0.378201 0.187864 0.378201
v 0.494143 0.187864 0.204681
v 0.204681 0.187864 0.494143
v -0.000000 0.187864 0.534857
v -0.204681 0.187864 0.494143
v -0.378201 0.187864 0.378201
v -0.494143 0.187864 0.204681
v -0.534857 0.187864 -0.000000
v -0.494143 0.187864 -0.204681
v -0.378201 0.187864 -0.378201
v -0.204681 0.187864 -0.494143
v 0.000000 0.187864 -0.534857
v 0.204681 0.187864 -0.494143
v 0.378201 0.187864 -0.378201
v 0.494143 0.187864 -0.204681
v 0.534857 0.187864 0.000000
v 0.520940 0.134287 0.520940
v 0.680641 0.134287 0.281931
v 0.430744 0.134287 0.430744
v 0.562794 0.134287 0.233117
v 0.680642 0.134287 -0.281931
v 0.520941 0.134287 -0.520940
v 0.562794 0.134287 -0.233117
v 0.430744 0.134287 -0.430744
v 0.736721 0.134287 0.000000
v 0.609164 0.134287 0.000000
v -0.680642 0.134287 0.281931
v -0.520940 0.134287 0.520940
v -0.562794 0.134287 0.233117
v -0.430744 0.134287 0.430744
v -0.736721 0.134287 -0.000000
v -0.609164 0.134287 -0.000000
v -0.680641 0.134287 -0.281931
v -0.562794 0.134287 -0.233117
v -0.520940 0.134287 -0.520941
v -0.430744 0.134287 -0.430744
vt 0.765125 0.470412
vt 0.746627 0.470409
vt 0.746664 0.249556
vt 0.765162 0.249560
vt 0.728130 0.470406
vt 0.728167 0.249553
vt 0.783622 0.470415
vt 0.783659 0.249563
vt 0.709632 0.470402
vt 0.709669 0.249550
vt 0.802120 0.470418
vt 0.802157 0.249566
vt 0.691135 0.470399
vt 0.691172 0.249547
vt 0.913105 0.470436
vt 0.894607 0.470433
vt 0.894644 0.249581
vt 0.913142 0.249584
vt 0.876110 0.470430
vt 0.876147 0.249578
vt 0.931602 0.470440
vt 0.931639 0.249587
vt 0.857612 0.470427
vt 0.857649 0.249575
vt 0.950100 0.470443
vt 0.950137 0.249590
vt 0.839115 0.470424
vt 0.839152 0.249572
vt 0.286241 0.655714
vt 0.263510 0.655714
vt 0.263510 0.604406
vt 0.286241 0.604406
vt 0.240778 0.655714
vt 0.240778 0.604406
vt 0.263510 0.126027
vt 0.286241 0.126027
vt 0.305512 0.655714
vt 0.305512 0.604406
vt 0.221507 0.655714
vt 0.221507 0.604406
vt 0.240778 0.126027
vt 0.305512 0.126027
vt 0.318389 0.655714
vt 0.318389 0.604406
vt 0.208630 0.655714
vt 0.208630 0.604406
vt 0.221507 0.126027
vt 0.286241 0.655714
vt 0.263510 0.655714
vt 0.263510 0.604406
vt 0.286241 0.604406
vt 0.240778 0.655714
vt 0.240778 0.604406
vt 0.263510 0.126027
vt 0.286241 0.126027
vt 0.305512 0.655714
vt 0.305512 0.604406
vt 0.221507 0.655714
vt 0.221507 0.604406
vt 0.240778 0.126027
vt 0.305512 0.126027
vt 0.318389 0.655714
vt 0.318389 0.604406
vt 0.208630 0.655714
vt 0.208630 0.604406
vt 0.221507 0.126027
vt 0.447021 0.604406
vt 0.465817 0.604406
vt 0.465817 0.617398
vt 0.447021 0.617398
vt 0.447021 0.126027
vt 0.465817 0.126027
vt 0.484613 0.604406
vt 0.484613 0.617398
vt 0.431087 0.604406
vt 0.431087 0.617398
vt 0.431087 0.126027
vt 0.484613 0.126027
vt 0.500548 0.604406
vt 0.500548 0.617398
vt 0.420440 0.604406
vt 0.420440 0.617398
vt 0.423815 0.604406
vt 0.423815 0.126027
vt 0.500548 0.126027
vt 0.511195 0.604406
vt 0.511195 0.617398
vt 0.507820 0.604406
vt 0.507820 0.126027
vt 0.447021 0.604406
vt 0.465817 0.604406
vt 0.465817 0.617398
vt 0.447021 0.617398
vt 0.447021 0.126027
vt 0.465817 0.126027
vt 0.484613 0.604406
vt 0.484613 0.617398
vt 0.431087 0.604406
vt 0.431087 0.617398
vt 0.431087 0.126027
vt 0.484613 0.126027
vt 0.500548 0.604406
vt 0.500548 0.617398
vt 0.420440 0.604406
vt 0.420440 0.617398
vt 0.423814 0.604406
vt 0.423814 0.126027
vt 0.500548 0.126027
vt 0.511195 0.604406
vt 0.511195 0.617398
vt 0.507820 0.604406
vt 0.507820 0.126027
vt 0.613286 0.613078
vt 0.596782 0.613078
vt 0.596782 0.126027
vt 0.613286 0.126027
vt 0.580279 0.613078
vt 0.580279 0.126027
vt 0.627276 0.613078
vt 0.627276 0.126027
vt 0.566288 0.613078
vt 0.566288 0.126027
vt 0.636625 0.613078
vt 0.636625 0.126027
vt 0.556940 0.613078
vt 0.556940 0.126027
vt 0.613286 0.613078
vt 0.596782 0.613078
vt 0.596782 0.126027
vt 0.613286 0.126027
vt 0.580279 0.613078
vt 0.580279 0.126027
vt 0.627276 0.613078
vt 0.627276 0.126027
vt 0.566288 0.613078
vt 0.566288 0.126027
vt 0.636625 0.613078
vt 0.636625 0.126027
vt 0.556940 0.613078
vt 0.556940 0.126027
vt 0.121635 0.323845
vt 0.147793 0.341323
vt 0.132783 0.356333
vt 0.113512 0.343457
vt 0.165271 0.367481
vt 0.145659 0.375604
vt 0.090780 0.317707
vt 0.090780 0.338935
vt 0.171409 0.398336
vt 0.150181 0.398336
vt 0.059925 0.323845
vt 0.068048 0.343457
vt 0.165271 0.429191
vt 0.145659 0.421068
vt 0.033767 0.341323
vt 0.048777 0.356333
vt 0.147793 0.455349
vt 0.132783 0.440339
vt 0.016289 0.367481
vt 0.035901 0.375604
vt 0.121635 0.472827
vt 0.113512 0.453215
vt 0.010151 0.398336
vt 0.031379 0.398336
vt 0.090780 0.478965
vt 0.090780 0.457737
vt 0.016288 0.429191
vt 0.035901 0.421068
vt 0.059925 0.472827
vt 0.068048 0.453215
vt 0.033767 0.455349
vt 0.048777 0.440339
vt 0.168445 0.104047
vt 0.181321 0.123318
vt 0.171819 0.127254
vt 0.161172 0.111319
vt 0.185843 0.146050
vt 0.175558 0.146050
vt 0.181321 0.168782
vt 0.171819 0.164846
vt 0.168445 0.188053
vt 0.161172 0.180780
vt 0.168445 0.104047
vt 0.181321 0.123318
vt 0.171819 0.127254
vt 0.161172 0.111319
vt 0.185843 0.146050
vt 0.175558 0.146050
vt 0.181321 0.168782
vt 0.171819 0.164846
vt 0.168445 0.188053
vt 0.161172 0.180780
vt 0.168675 0.031907
vt 0.181608 0.023266
vt 0.183468 0.027758
vt 0.172114 0.035345
vt 0.196862 0.020231
vt 0.196862 0.025094
vt 0.160034 0.044839
vt 0.164527 0.046700
vt 0.212117 0.023266
vt 0.210256 0.027758
vt 0.157000 0.060094
vt 0.161863 0.060094
vt 0.225049 0.031907
vt 0.221611 0.035345
vt 0.160034 0.075349
vt 0.164527 0.073488
vt 0.233691 0.044839
vt 0.229198 0.046700
vt 0.168676 0.088281
vt 0.172114 0.084843
vt 0.236725 0.060094
vt 0.231862 0.060094
vt 0.181608 0.096922
vt 0.183469 0.092430
vt 0.233690 0.075348
vt 0.229198 0.073488
vt 0.196863 0.099956
vt 0.196863 0.095094
vt 0.225049 0.088281
vt 0.221611 0.084842
vt 0.212117 0.096922
vt 0.210256 0.092430
vt 0.820617 0.470421
vt 0.820655 0.249569
vt 0.987095 0.470449
vt 0.968598 0.470446
vt 0.968634 0.249594
vt 0.987132 0.249597
vt 0.404595 0.182334
vt 0.381863 0.182334
vt 0.381863 0.131026
vt 0.404595 0.131026
vt 0.359132 0.182334
vt 0.359132 0.131026
vt 0.404595 0.182334
vt 0.381863 0.182334
vt 0.381863 0.131026
vt 0.404595 0.131026
vt 0.359132 0.182334
vt 0.359132 0.131026
vt 0.348725 0.130753
vt 0.348725 0.149549
vt 0.335732 0.149549
vt 0.335732 0.130753
vt 0.348725 0.168344
vt 0.335732 0.168344
vt 0.348725 0.130753
vt 0.348725 0.149549
vt 0.335732 0.149549
vt 0.335732 0.130753
vt 0.348725 0.168344
vt 0.335732 0.168344
vt 0.550232 0.613078
vt 0.533729 0.613078
vt 0.533729 0.126027
vt 0.550232 0.126027
vt 0.517226 0.613078
vt 0.517226 0.126027
vt 0.550232 0.613078
vt 0.533729 0.613078
vt 0.533729 0.126027
vt 0.550232 0.126027
vt 0.517226 0.613078
vt 0.517226 0.126027
vn 0.923880 0.000000 -0.382683
vn 0.707107 0.000000 -0.707106
vn 0.707107 0.000000 -0.707106
vn 0.923880 0.000000 -0.382683
vn 0.382684 0.000000 -0.923879
vn 0.382684 0.000000 -0.923879
vn 0.000001 0.000000 -1.000000
vn 0.000001 0.000000 -1.000000
vn -0.382683 0.000000 -0.923880
vn -0.382683 0.000000 -0.923880
vn -0.707106 0.000000 -0.707107
vn -0.707106 0.000000 -0.707107
vn -0.923879 0.000000 -0.382684
vn -0.923879 0.000000 -0.382684
vn -1.000000 0.000000 -0.000000
vn -1.000000 0.000000 -0.000000
vn -0.923880 0.000000 0.382683
vn -0.923880 0.000000 0.382683
vn -0.707107 0.000000 0.707107
vn -0.707107 0.000000 0.707107
vn -0.382684 0.000000 0.923880
vn -0.382684 0.000000 0.923880
vn -0.000000 0.000000 1.000000
vn -0.000000 0.000000 1.000000
vn 0.382683 0.000000 0.923880
vn 0.382683 0.000000 0.923880
vn 0.707107 0.000000 0.707107
vn 0.707107 0.000000 0.707107
vn 0.923880 0.000000 0.382683
vn 0.923880 0.000000 0.382683
vn 1.000000 0.000000 0.000000
vn 1.000000 0.000000 0.000000
vn 0.000000 1.000000 0.000000
vn 0.000000 1.000000 0.000000
vn 0.000000 1.000000 0.000000
vn 0.000000 1.000000 0.000000
vn 0.000000 1.000000 -0.000000
vn 0.000000 1.000000 0.000000
vn 0.000000 1.000000 0.000000
vn 0.000000 1.000000 0.000000
vn 0.000000 1.000000 0.000000
vn 0.000000 1.000000 0.000000
vn 0.000000 1.000000 0.000000
vn 0.000000 1.000000 0.000000
vn 0.000000 1.000000 0.000000
vn 0.000000 1.000000 -0.000000
vn 0.000000 1.000000 -0.000000
vn 0.000000 1.000000 -0.000000
vn 0.000000 1.000000 0.000000
vn 0.000000 -1.000000 0.000000
vn 0.000000 -1.000000 0.000000
vn 0.000000 -1.000000 0.000000
vn 0.000000 -1.000000 0.000000
vn 0.000000 -1.000000 0.000001
vn 0.000000 -1.000000 0.000001
vn 0.000000 -1.000000 0.000001
vn 0.000000 -1.000000 0.000001
vn 0.000000 -1.000000 0.000000
vn 0.000000 -1.000000 0.000000
vn 0.000000 -1.000000 -0.000000
vn 0.000000 -1.000000 -0.000000
vn 0.000000 -1.000000 0.000000
vn 0.000000 -1.000000 0.000000
vn 0.000000 -1.000000 0.000000
vn 0.000000 -1.000000 0.000000
vn 0.000000 -1.000000 -0.000000
vn 0.000000 -1.000000 -0.000000
vn 0.000000 -1.000000 0.000000
vn 0.000000 -1.000000 -0.000000
vn 0.000000 -1.000000 0.000000
vn 0.000000 -1.000000 0.000000
vn 0.000000 -1.000000 0.000000
vn 0.000000 -1.000000 0.000000
vn 0.000000 -1.000000 0.000000
vn 0.000000 -1.000000 0.000000
vn 0.000000 -1.000000 -0.000000
vn 0.000000 -1.000000 -0.000000
vn 0.000000 -1.000000 0.000000
vn 0.000000 -1.000000 0.000000
vn 0.000000 -1.000000 0.000000
vn 0.000000 -1.000000 0.000000
vn 0.923879 0.000000 0.382684
vn 0.707107 0.000000 0.707107
vn 0.812097 0.000000 0.583522
vn 0.923879 0.000000 0.382684
vn 0.382683 0.000000 0.923880
vn 0.382683 0.000000 0.923880
vn -0.000000 0.000000 1.000000
vn -0.000000 0.000000 1.000000
vn -0.382684 0.000000 0.923879
vn -0.382684 0.000000 0.923879
vn -0.707107 0.000000 0.707107
vn -0.812097 0.000000 0.583522
vn -0.923880 0.000000 0.382683
vn -0.923880 0.000000 0.382683
vn -1.000000 0.000000 -0.000000
vn -1.000000 0.000000 -0.000000
vn -0.923879 0.000000 -0.382684
vn -0.923880 0.000000 -0.382684
vn -0.707106 0.000000 -0.707107
vn -0.812097 0.000000 -0.583523
vn -0.382683 0.000000 -0.923880
vn -0.382683 0.000000 -0.923880
vn 0.000001 0.000000 -1.000000
vn 0.000001 0.000000 -1.000000
vn 0.382684 0.000000 -0.923879
vn 0.382684 0.000000 -0.923879
vn 0.707107 0.000000 -0.707107
vn 0.812097 0.000000 -0.583522
vn 0.923880 0.000000 -0.382683
vn 0.923880 0.000000 -0.382683
vn 1.000000 0.000000 0.000000
vn 1.000000 0.000000 0.000000
vn 0.000000 -1.000000 0.000000
vn 0.000000 -1.000000 -0.000001
vn 0.000000 -1.000000 -0.000001
vn 0.000000 -1.000000 0.000000
vn 0.000000 -1.000000 -0.000001
vn 0.000000 -1.000000 -0.000001
vn 0.000000 -1.000000 0.000000
vn 0.000000 -1.000000 0.000000
vn 0.000000 -1.000000 0.000000
vn 0.000000 -1.000000 0.000000
vn 0.000000 -1.000000 0.000000
vn 0.000000 -1.000000 0.000001
vn 0.000000 -1.000000 0.000001
vn 0.000000 -1.000000 0.000000
vn 0.000000 -1.000000 -0.000000
vn 0.000000 -1.000000 -0.000000
vn 0.000000 -1.000000 -0.000001
vn 0.000000 -1.000000 -0.000001
vn 0.000000 -1.000000 -0.000001
vn 0.000000 -1.000000 -0.000001
vn -0.923880 0.000000 -0.382683
vn -0.825942 0.000000 -0.563755
vn -0.707107 0.000000 -0.707107
vn -0.923879 0.000000 -0.382684
vn -0.382684 0.000000 -0.923879
vn -0.382684 0.000000 -0.923879
vn 0.000000 0.000000 -1.000000
vn 0.000000 0.000000 -1.000000
vn 0.382684 0.000000 -0.923880
vn 0.382684 0.000000 -0.923880
vn 0.825942 0.000000 -0.563756
vn 0.707107 0.000000 -0.707106
vn 0.923880 0.000000 -0.382683
vn 0.923880 0.000000 -0.382683
vn 1.000000 0.000000 0.000000
vn 1.000000 0.000000 0.000000
vn 0.923879 0.000000 0.382684
vn 0.923879 0.000000 0.382684
vn 0.825942 0.000000 0.563755
vn 0.707107 0.000000 0.707107
vn 0.382683 0.000000 0.923880
vn 0.382683 0.000000 0.923880
vn -0.000000 0.000000 1.000000
vn -0.000000 0.000000 1.000000
vn -0.382684 0.000000 0.923879
vn -0.382684 0.000000 0.923879
vn -0.825942 0.000000 0.563755
vn -0.707107 0.000000 0.707107
vn -0.923880 0.000000 0.382683
vn -0.923880 0.000000 0.382683
vn -1.000000 0.000000 -0.000001
vn -1.000000 0.000000 -0.000001
vn 0.000000 -1.000000 -0.000000
vn 0.000000 -1.000000 -0.000001
vn 0.000000 -1.000000 -0.000001
vn 0.000000 -1.000000 0.000000
vn 0.000000 -1.000000 -0.000002
vn 0.000000 -1.000000 -0.000002
vn 0.000000 -1.000000 -0.000002
vn 0.000000 -1.000000 -0.000002
vn 0.000000 -1.000000 -0.000001
vn 0.000000 -1.000000 -0.000001
vn 0.000000 -1.000000 -0.000000
vn 0.000000 -1.000000 -0.000000
vn 0.000000 -1.000000 -0.000000
vn 0.000000 -1.000000 -0.000000
vn 0.000000 -1.000000 -0.000001
vn 0.000000 -1.000000 -0.000001
vn 0.000000 -1.000000 0.000000
vn 0.000000 -1.000000 -0.000000
vn 0.000000 -1.000000 0.000000
vn 0.000000 -1.000000 0.000000
vn 0.000000 -1.000000 -0.000000
vn 0.000000 -1.000000 -0.000000
vn 0.000000 -1.000000 -0.000001
vn 0.000000 -1.000000 -0.000001
vn 0.000000 -1.000000 0.000001
vn 0.000000 -1.000000 0.000001
vn 0.000000 -1.000000 0.000001
vn 0.000000 -1.000000 0.000001
vn 0.000000 -1.000000 -0.000000
vn 0.000000 -1.000000 -0.000000
vn 0.000000 -1.000000 0.000000
vn 0.000000 -1.000000 0.000000
vn 0.923880 0.000000 0.382683
vn 0.707107 0.000000 0.707107
vn 0.707107 0.000000 0.707107
vn 0.923880 0.000000 0.382683
vn 0.382683 0.000000 0.923880
vn 0.382683 0.000000 0.923880
vn -0.000000 0.000000 1.000000
vn -0.000000 0.000000 1.000000
vn -0.382684 0.000000 0.923880
vn -0.382684 0.000000 0.923880
vn -0.707107 0.000000 0.707107
vn -0.707107 0.000000 0.707107
vn -0.923880 0.000000 0.382683
vn -0.923880 0.000000 0.382683
vn -1.000000 0.000000 -0.000000
vn -1.000000 0.000000 -0.000000
vn -0.923879 0.000000 -0.382684
vn -0.923879 0.000000 -0.382684
vn -0.707107 0.000000 -0.707107
vn -0.707107 0.000000 -0.707107
vn -0.382683 0.000000 -0.923880
vn -0.382683 0.000000 -0.923880
vn 0.000001 0.000000 -1.000000
vn 0.000001 0.000000 -1.000000
vn 0.382684 0.000000 -0.923879
vn 0.382684 0.000000 -0.923879
vn 0.707107 0.000000 -0.707107
vn 0.707107 0.000000 -0.707107
vn 0.923880 0.000000 -0.382683
vn 0.923880 0.000000 -0.382683
vn 1.000000 0.000000 0.000000
vn 1.000000 0.000000 0.000000
vn 0.831469 0.000000 0.555571
vn 0.923880 0.000000 0.382684
vn -0.707107 0.000000 0.707107
vn -0.707107 0.000000 0.707107
vn -0.707107 0.000000 0.707107
vn -0.707107 0.000000 0.707107
vn -0.923880 0.000000 -0.382683
vn -0.831469 0.000000 -0.555570
vn 0.923880 0.000000 -0.382683
vn 0.831470 0.000000 -0.555570
vn -0.831470 0.000000 0.555570
vn -0.923880 0.000000 0.382683
vn -0.707107 0.000000 -0.707107
vn -0.707107 0.000000 -0.707107
vn -0.707107 0.000000 -0.707107
vn -0.707107 0.000000 -0.707107
vn 1.000000 0.000000 0.000000
vn -1.000000 0.000000 -0.000001
vn -0.923880 0.000000 0.382683
vn -0.831469 0.000000 0.555571
vn 0.831469 0.000000 -0.555571
vn 0.923880 0.000000 -0.382683
vn 0.707107 0.000000 0.707107
vn 0.707107 0.000000 0.707107
vn 0.707107 0.000000 0.707107
vn 0.707107 0.000000 0.707107
vn -1.000000 0.000000 -0.000000
vn 1.000000 0.000000 0.000000
vn -0.923880 0.000000 -0.382684
vn 0.923879 0.000000 0.382684
vn -0.831469 0.000000 -0.555571
vn 0.707107 0.000000 -0.707107
vn 0.707107 0.000000 -0.707107
vn 0.707107 0.000000 -0.707107
vn 0.707107 0.000000 -0.707107
vn 0.831469 0.000000 0.555571
s 1
g pCylinder1
usemtl lambert1SG
f 1/19/1 2/23/2 18/24/3 17/20/4
f 2/23/2 3/27/5 19/28/6 18/24/3
f 3/27/5 4/225/7 20/226/8 19/28/6
f 4/225/7 5/11/9 21/12/10 20/226/8
f 5/11/9 6/7/11 22/8/12 21/12/10
f 6/7/11 7/1/13 23/4/14 22/8/12
f 7/1/13 8/2/15 24/3/16 23/4/14
f 8/2/15 9/5/17 25/6/18 24/3/16
f 9/5/17 10/9/19 26/10/20 25/6/18
f 10/9/19 11/13/21 27/14/22 26/10/20
f 11/227/21 12/228/23 28/229/24 27/230/22
f 12/228/23 13/25/25 29/26/26 28/229/24
f 13/25/25 14/21/27 30/22/28 29/26/26
f 14/21/27 15/15/29 31/18/30 30/22/28
f 15/15/29 16/16/31 32/17/32 31/18/30
f 16/16/31 1/19/1 17/20/4 32/17/32
s 2
f 17//33 18//34 33//35
f 18//34 19//36 33//35
f 19//36 20//37 33//35
f 20//37 21//38 33//35
f 21//38 22//39 33//35
f 22//39 23//40 33//35
f 23//40 24//41 33//35
f 24//41 25//42 33//35
f 25//42 26//43 33//35
f 26//43 27//44 33//35
f 27//44 28//45 33//35
f 28//45 29//46 33//35
f 29//46 30//47 33//35
f 30//47 31//48 33//35
f 31//48 32//49 33//35
f 32//49 17//33 33//35
s 3
f 15/141/50 14/142/51 34/143/52 35/144/53
f 14/142/51 13/145/54 36/146/55 34/143/52
f 13/145/54 12/149/56 37/150/57 36/146/55
f 12/149/56 11/153/58 38/154/59 37/150/57
f 11/153/58 10/157/60 39/158/61 38/154/59
f 10/157/60 9/161/62 40/162/63 39/158/61
f 9/161/62 8/165/64 41/166/65 40/162/63
f 8/165/64 7/169/66 42/170/67 41/166/65
f 7/169/66 6/171/68 43/172/69 42/170/67
f 6/171/68 5/167/70 44/168/71 43/172/69
f 5/167/70 4/163/72 45/164/73 44/168/71
f 4/163/72 3/159/74 46/160/75 45/164/73
f 3/159/74 2/155/76 47/156/77 46/160/75
f 2/155/76 1/151/78 48/152/79 47/156/77
f 1/151/78 16/147/80 49/148/81 48/152/79
f 16/147/80 15/141/50 35/144/53 49/148/81
s 4
f 35/52/82 34/58/83 50/59/84 51/53/85
f 34/58/83 36/64/86 52/65/87 50/59/84
f 36/231/86 37/232/88 53/233/89 52/234/87
f 37/232/88 38/235/90 54/236/91 53/233/89
f 38/43/90 39/37/92 55/38/93 54/44/91
f 39/37/92 40/29/94 56/32/95 55/38/93
f 40/29/94 41/30/96 57/31/97 56/32/95
f 41/30/96 42/33/98 58/34/99 57/31/97
f 42/33/98 43/39/100 59/40/101 58/34/99
f 43/39/100 44/45/102 60/46/103 59/40/101
f 44/237/102 45/238/104 61/239/105 60/240/103
f 45/238/104 46/241/106 62/242/107 61/239/105
f 46/62/106 47/56/108 63/57/109 62/63/107
f 47/56/108 48/48/110 64/51/111 63/57/109
f 48/48/110 49/49/112 65/50/113 64/51/111
f 49/49/112 35/52/82 51/53/85 65/50/113
s 5
f 50/173/114 52/174/115 68/175/116 66/176/117
f 52/174/115 53/177/118 69/178/119 68/175/116
f 53/177/118 54/179/120 70/180/121 69/178/119
f 54/179/120 55/181/122 71/182/123 70/180/121
s 6
f 59/183/124 60/184/125 76/185/126 75/186/127
f 60/184/125 61/187/128 77/188/129 76/185/126
f 61/187/128 62/189/130 78/190/131 77/188/129
f 62/189/130 63/191/132 79/192/133 78/190/131
s 7
f 67/96/134 66/102/135 82/103/136 83/97/137
f 66/102/135 68/109/138 84/110/139 82/103/136
f 68/243/138 69/244/140 85/245/141 84/246/139
f 69/244/140 70/247/142 86/248/143 85/245/141
f 70/81/142 71/75/144 87/76/145 86/82/143
f 71/75/144 72/67/146 88/70/147 87/76/145
f 72/67/146 73/68/148 89/69/149 88/70/147
f 73/68/148 74/73/150 90/74/151 89/69/149
f 74/73/150 75/79/152 91/80/153 90/74/151
f 75/79/152 76/86/154 92/87/155 91/80/153
f 76/249/154 77/250/156 93/251/157 92/252/155
f 77/250/156 78/253/158 94/254/159 93/251/157
f 78/104/158 79/98/160 95/99/161 94/105/159
f 79/98/160 80/90/162 96/93/163 95/99/161
f 80/90/162 81/91/164 97/92/165 96/93/163
f 81/91/164 67/96/134 83/97/137 97/92/165
s 8
f 83/193/166 82/194/167 98/195/168 99/196/169
f 82/194/167 84/197/170 100/198/171 98/195/168
f 84/197/170 85/201/172 101/202/173 100/198/171
f 85/201/172 86/205/174 102/206/175 101/202/173
f 86/205/174 87/209/176 103/210/177 102/206/175
f 87/209/176 88/213/178 104/214/179 103/210/177
f 88/213/178 89/217/180 105/218/181 104/214/179
f 89/217/180 90/221/182 106/222/183 105/218/181
f 90/221/182 91/223/184 107/224/185 106/222/183
f 91/223/184 92/219/186 108/220/187 107/224/185
f 92/219/186 93/215/188 109/216/189 108/220/187
f 93/215/188 94/211/190 110/212/191 109/216/189
f 94/211/190 95/207/192 111/208/193 110/212/191
f 95/207/192 96/203/194 112/204/195 111/208/193
f 96/203/194 97/199/196 113/200/197 112/204/195
f 97/199/196 83/193/166 99/196/169 113/200/197
s 9
f 99/131/198 98/135/199 114/136/200 115/132/201
f 98/135/199 100/139/202 116/140/203 114/136/200
f 100/255/202 101/256/204 117/257/205 116/258/203
f 101/256/204 102/259/206 118/260/207 117/257/205
f 102/123/206 103/119/208 119/120/209 118/124/207
f 103/119/208 104/113/210 120/116/211 119/120/209
f 104/113/210 105/114/212 121/115/213 120/116/211
f 105/114/212 106/117/214 122/118/215 121/115/213
f 106/117/214 107/121/216 123/122/217 122/118/215
f 107/121/216 108/125/218 124/126/219 123/122/217
f 108/261/218 109/262/220 125/263/221 124/264/219
f 109/262/220 110/265/222 126/266/223 125/263/221
f 110/137/222 111/133/224 127/134/225 126/138/223
f 111/133/224 112/127/226 128/130/227 127/134/225
f 112/127/226 113/128/228 129/129/229 128/130/227
f 113/128/228 99/131/198 115/132/201 129/129/229
s 4
f 51/53/85 50/59/84 130/66/230 131/60/231
s off
f 50/111/232 66/102/233 132/108/234 130/112/235
s 7
f 66/102/135 67/96/134 133/101/236 132/108/237
s 4
f 63/57/109 64/51/111 134/55/238 135/61/239
s 7
f 80/90/162 79/98/160 137/100/240 136/94/241
s off
f 79/98/242 63/106/243 135/107/244 137/100/245
s 4
f 64/51/111 65/50/113 138/54/246 134/55/238
s 7
f 81/91/164 80/90/162 136/94/241 139/95/247
s 4
f 65/50/113 51/53/85 131/60/231 138/54/246
s 7
f 67/96/134 81/91/164 139/95/247 133/101/236
s 4
f 55/38/93 56/32/95 140/36/248 141/42/249
s 7
f 72/67/146 71/75/144 143/77/250 142/71/251
s off
f 71/75/252 55/83/253 141/84/254 143/77/255
s 4
f 56/32/95 57/31/97 144/35/256 140/36/248
s 7
f 73/68/148 72/67/146 142/71/251 145/72/257
s 4
f 57/31/97 58/34/99 146/41/258 144/35/256
s 7
f 74/73/150 73/68/148 145/72/257 147/78/259
s 4
f 58/34/99 59/40/101 148/47/260 146/41/258
s off
f 59/88/261 75/79/262 149/85/263 148/89/264
s 7
f 75/79/152 74/73/150 147/78/259 149/85/265
g default
v 0.494016 11.774053 -0.204628
v 0.378103 11.774053 -0.378103
v 0.204628 11.774053 -0.494015
v 0.000000 11.774053 -0.534718
v -0.204628 11.774053 -0.494016
v -0.378103 11.774053 -0.378103
v -0.494015 11.774053 -0.204628
v -0.534718 11.774053 -0.000000
v -0.494016 11.774053 0.204628
v -0.378103 11.774053 0.378103
v -0.204628 11.774053 0.494015
v -0.000000 11.774053 0.534718
v 0.204628 11.774053 0.494015
v 0.378103 11.774053 0.378103
v 0.494015 11.774053 0.204628
v 0.534718 11.774053 0.000000
v 0.420126 11.871506 -0.174021
v 0.321550 11.871506 -0.321550
v 0.174022 11.871506 -0.420125
v 0.000000 11.871506 -0.454741
v -0.174022 11.871506 -0.420126
v -0.321550 11.871506 -0.321550
v -0.420126 11.871506 -0.174022
v -0.454741 11.871506 -0.000000
v -0.420126 11.871506 0.174022
v -0.321550 11.871506 0.321550
v -0.174022 11.871506 0.420126
v -0.000000 11.871506 0.454741
v 0.174022 11.871506 0.420126
v 0.321550 11.871506 0.321550
v 0.420126 11.871506 0.174022
v 0.454741 11.871506 0.000000
v 0.330091 11.951484 -0.136728
v 0.252641 11.951484 -0.252640
v 0.136728 11.951484 -0.330090
v 0.000000 11.951484 -0.357287
v -0.136728 11.951484 -0.330091
v -0.252640 11.951484 -0.252640
v -0.330091 11.951484 -0.136728
v -0.357287 11.951484 -0.000000
v -0.330091 11.951484 0.136728
v -0.252640 11.951484 0.252640
v -0.136728 11.951484 0.330091
v -0.000000 11.951484 0.357287
v 0.136728 11.951484 0.330091
v 0.252640 11.951484 0.252640
v 0.330091 11.951484 0.136728
v 0.357287 11.951484 0.000000
v 0.227370 12.010913 -0.094180
v 0.174022 12.010913 -0.174022
v 0.094180 12.010913 -0.227370
v 0.000000 12.010913 -0.246104
v -0.094180 12.010913 -0.227370
v -0.174022 12.010913 -0.174022
v -0.227370 12.010913 -0.094180
v -0.246104 12.010913 -0.000000
v -0.227370 12.010913 0.094180
v -0.174022 12.010913 0.174022
v -0.094180 12.010913 0.227370
v -0.000000 12.010913 0.246104
v 0.094180 12.010913 0.227370
v 0.174022 12.010913 0.174022
v 0.227370 12.010913 0.094180
v 0.246104 12.010913 0.000000
v 0.115912 12.047509 -0.048012
v 0.088716 12.047509 -0.088715
v 0.048013 12.047509 -0.115912
v 0.000000 12.047509 -0.125463
v -0.048012 12.047509 -0.115912
v -0.088715 12.047509 -0.088716
v -0.115912 12.047509 -0.048013
v -0.125463 12.047509 -0.000000
v -0.115912 12.047509 0.048012
v -0.088716 12.047509 0.088715
v -0.048013 12.047509 0.115912
v -0.000000 12.047509 0.125463
v 0.048012 12.047509 0.115912
v 0.088715 12.047509 0.088716
v 0.115912 12.047509 0.048012
v 0.125463 12.047509 0.000000
v 0.000000 12.059866 0.000000
vt 0.276173 0.866560
vt 0.252129 0.902545
vt 0.227722 0.878138
vt 0.244284 0.853351
vt 0.304124 0.878138
vt 0.273522 0.923938
vt 0.216144 0.926589
vt 0.202935 0.894700
vt 0.201238 0.851655
vt 0.209682 0.839019
vt 0.284616 0.824113
vt 0.250100 0.824113
vt 0.327063 0.887640
vt 0.291079 0.941495
vt 0.227722 0.954541
vt 0.314871 0.824113
vt 0.173697 0.935033
vt 0.173697 0.900516
vt 0.188602 0.860098
vt 0.173697 0.824113
vt 0.212647 0.824113
vt 0.276173 0.781666
vt 0.244284 0.794875
vt 0.237223 0.977480
vt 0.339700 0.824113
vt 0.173697 0.965287
vt 0.304124 0.770088
vt 0.131250 0.926590
vt 0.144459 0.894700
vt 0.173697 0.863063
vt 0.209682 0.809208
vt 0.252129 0.745681
vt 0.227722 0.770088
vt 0.173697 0.990116
vt 0.327063 0.760587
vt 0.119672 0.954541
vt 0.273522 0.724288
vt 0.095265 0.902545
vt 0.119672 0.878138
vt 0.158791 0.860098
vt 0.201238 0.796572
vt 0.216144 0.721637
vt 0.202935 0.753526
vt 0.110170 0.977480
vt 0.291078 0.706732
vt 0.073872 0.923938
vt 0.227722 0.693686
vt 0.071221 0.866560
vt 0.103110 0.853351
vt 0.146155 0.851655
vt 0.188602 0.788128
vt 0.173697 0.713194
vt 0.173697 0.747711
vt 0.056315 0.941495
vt 0.237223 0.670747
vt 0.043269 0.878138
vt 0.173697 0.682940
vt 0.062777 0.824113
vt 0.097294 0.824113
vt 0.137712 0.839019
vt 0.173697 0.785164
vt 0.131250 0.721637
vt 0.144459 0.753526
vt 0.020330 0.887640
vt 0.173697 0.658111
vt 0.032523 0.824113
vt 0.119672 0.693686
vt 0.071221 0.781666
vt 0.103110 0.794875
vt 0.134747 0.824113
vt 0.158791 0.788128
vt 0.095265 0.745682
vt 0.119672 0.770089
vt 0.007694 0.824113
vt 0.110170 0.670747
vt 0.043269 0.770089
vt 0.073872 0.724288
vt 0.137712 0.809208
vt 0.146155 0.796572
vt 0.020330 0.760587
vt 0.056315 0.706732
vn 0.714169 0.634393 -0.295818
vn 0.546601 0.634393 -0.546601
vn 0.509042 0.694084 -0.509042
vn 0.665095 0.694084 -0.275491
vn 0.295819 0.634393 -0.714168
vn 0.275492 0.694084 -0.665095
vn 0.000000 0.634393 -0.773010
vn 0.000000 0.694084 -0.719894
vn -0.295818 0.634393 -0.714169
vn -0.275491 0.694084 -0.665095
vn -0.546601 0.634393 -0.546601
vn -0.509042 0.694084 -0.509042
vn -0.714168 0.634393 -0.295819
vn -0.665095 0.694084 -0.275492
vn -0.773010 0.634393 -0.000000
vn -0.719894 0.694084 -0.000000
vn -0.714169 0.634393 0.295818
vn -0.665095 0.694084 0.275491
vn -0.546601 0.634393 0.546601
vn -0.509042 0.694084 0.509042
vn -0.295818 0.634393 0.714168
vn -0.275492 0.694084 0.665095
vn -0.000000 0.634393 0.773010
vn -0.000000 0.694084 0.719894
vn 0.295818 0.634393 0.714168
vn 0.275491 0.694084 0.665095
vn 0.546601 0.634393 0.546601
vn 0.509042 0.694084 0.509042
vn 0.714169 0.634393 0.295818
vn 0.665095 0.694084 0.275492
vn 0.773010 0.634393 0.000000
vn 0.719894 0.694084 0.000000
vn 0.407062 0.817681 -0.407061
vn 0.531851 0.817681 -0.220300
vn 0.220300 0.817681 -0.531851
vn 0.000000 0.817681 -0.575672
vn -0.220300 0.817681 -0.531851
vn -0.407061 0.817681 -0.407062
vn -0.531851 0.817681 -0.220300
vn -0.575672 0.817681 -0.000000
vn -0.531851 0.817681 0.220300
vn -0.407061 0.817681 0.407061
vn -0.220300 0.817681 0.531851
vn -0.000000 0.817681 0.575672
vn 0.220300 0.817681 0.531851
vn 0.407061 0.817681 0.407061
vn 0.531851 0.817681 0.220300
vn 0.575672 0.817681 0.000000
vn 0.292546 0.910403 -0.292546
vn 0.382230 0.910403 -0.158325
vn 0.158325 0.910403 -0.382230
vn 0.000000 0.910403 -0.413722
vn -0.158324 0.910403 -0.382230
vn -0.292546 0.910403 -0.292546
vn -0.382230 0.910403 -0.158325
vn -0.413722 0.910403 -0.000000
vn -0.382230 0.910403 0.158325
vn -0.292546 0.910403 0.292546
vn -0.158325 0.910403 0.382230
vn -0.000000 0.910403 0.413722
vn 0.158325 0.910403 0.382230
vn 0.292546 0.910403 0.292546
vn 0.382230 0.910403 0.158325
vn 0.413722 0.910403 -0.000000
vn 0.177424 0.968009 -0.177424
vn 0.231816 0.968009 -0.096021
vn 0.096021 0.968009 -0.231815
vn 0.000000 0.968009 -0.250915
vn -0.096021 0.968009 -0.231816
vn -0.177424 0.968009 -0.177424
vn -0.231816 0.968009 -0.096021
vn -0.250915 0.968009 -0.000000
vn -0.231816 0.968009 0.096021
vn -0.177424 0.968009 0.177424
vn -0.096021 0.968009 0.231816
vn -0.000000 0.968009 0.250915
vn 0.096021 0.968009 0.231815
vn 0.177424 0.968009 0.177424
vn 0.231816 0.968009 0.096022
vn 0.250915 0.968009 0.000000
vn -0.000000 1.000000 -0.000000
s 1
g pSphere1
usemtl lambert1SG
f 150/279/266 151/280/267 167/272/268 166/271/269
f 151/280/267 152/290/270 168/281/271 167/272/268
f 152/290/270 153/300/272 169/292/273 168/281/271
f 153/300/272 154/310/274 170/302/275 169/292/273
f 154/310/274 155/320/276 171/312/277 170/302/275
f 155/320/276 156/330/278 172/322/279 171/312/277
f 156/330/278 157/340/280 173/332/281 172/322/279
f 157/340/280 158/346/282 174/342/283 173/332/281
f 158/346/282 159/347/284 175/343/285 174/342/283
f 159/347/284 160/341/286 176/333/287 175/343/285
f 160/341/286 161/331/288 177/323/289 176/333/287
f 161/331/288 162/321/290 178/313/291 177/323/289
f 162/321/290 163/311/292 179/303/293 178/313/291
f 163/311/292 164/301/294 180/293/295 179/303/293
f 164/301/294 165/291/296 181/282/297 180/293/295
f 165/291/296 150/279/266 166/271/269 181/282/297
f 166/271/269 167/272/268 183/268/298 182/267/299
f 167/272/268 168/281/271 184/273/300 183/268/298
f 168/281/271 169/292/273 185/283/301 184/273/300
f 169/292/273 170/302/275 186/294/302 185/283/301
f 170/302/275 171/312/277 187/304/303 186/294/302
f 171/312/277 172/322/279 188/314/304 187/304/303
f 172/322/279 173/332/281 189/324/305 188/314/304
f 173/332/281 174/342/283 190/334/306 189/324/305
f 174/342/283 175/343/285 191/338/307 190/334/306
f 175/343/285 176/333/287 192/328/308 191/338/307
f 176/333/287 177/323/289 193/318/309 192/328/308
f 177/323/289 178/313/291 194/308/310 193/318/309
f 178/313/291 179/303/293 195/298/311 194/308/310
f 179/303/293 180/293/295 196/288/312 195/298/311
f 180/293/295 181/282/297 197/277/313 196/288/312
f 181/282/297 166/271/269 182/267/299 197/277/313
f 182/267/299 183/268/298 199/269/314 198/270/315
f 183/268/298 184/273/300 200/274/316 199/269/314
f 184/273/300 185/283/301 201/284/317 200/274/316
f 185/283/301 186/294/302 202/295/318 201/284/317
f 186/294/302 187/304/303 203/305/319 202/295/318
f 187/304/303 188/314/304 204/315/320 203/305/319
f 188/314/304 189/324/305 205/325/321 204/315/320
f 189/324/305 190/334/306 206/335/322 205/325/321
f 190/334/306 191/338/307 207/339/323 206/335/322
f 191/338/307 192/328/308 208/329/324 207/339/323
f 192/328/308 193/318/309 209/319/325 208/329/324
f 193/318/309 194/308/310 210/309/326 209/319/325
f 194/308/310 195/298/311 211/299/327 210/309/326
f 195/298/311 196/288/312 212/289/328 211/299/327
f 196/288/312 197/277/313 213/278/329 212/289/328
f 197/277/313 182/267/299 198/270/315 213/278/329
f 198/270/315 199/269/314 215/275/330 214/276/331
f 199/269/314 200/274/316 216/285/332 215/275/330
f 200/274/316 201/284/317 217/296/333 216/285/332
f 201/284/317 202/295/318 218/306/334 217/296/333
f 202/295/318 203/305/319 219/316/335 218/306/334
f 203/305/319 204/315/320 220/326/336 219/316/335
f 204/315/320 205/325/321 221/336/337 220/326/336
f 205/325/321 206/335/322 222/344/338 221/336/337
f 206/335/322 207/339/323 223/345/339 222/344/338
f 207/339/323 208/329/324 224/337/340 223/345/339
f 208/329/324 209/319/325 225/327/341 224/337/340
f 209/319/325 210/309/326 226/317/342 225/327/341
f 210/309/326 211/299/327 227/307/343 226/317/342
f 211/299/327 212/289/328 228/297/344 227/307/343
f 212/289/328 213/278/329 229/287/345 228/297/344
f 213/278/329 198/270/315 214/276/331 229/287/345
f 214/276/331 215/275/330 230/286/346
f 215/275/330 216/285/332 230/286/346
f 216/285/332 217/296/333 230/286/346
f 217/296/333 218/306/334 230/286/346
f 218/306/334 219/316/335 230/286/346
f 219/316/335 220/326/336 230/286/346
f 220/326/336 221/336/337 230/286/346
f 221/336/337 222/344/338 230/286/346
f 222/344/338 223/345/339 230/286/346
f 223/345/339 224/337/340 230/286/346
f 224/337/340 225/327/341 230/286/346
f 225/327/341 226/317/342 230/286/346
f 226/317/342 227/307/343 230/286/346
f 227/307/343 228/297/344 230/286/346
f 228/297/344 229/287/345 230/286/346
f 229/287/345 214/276/331 230/286/346
g default
v -0.773800 -0.231640 1.868119
v -1.429797 -0.231640 1.429796
v 1.429797 -0.231640 -1.429795
v 1.868119 -0.231640 -0.773799
v -0.000000 -0.231640 2.022037
v 2.022037 -0.231640 0.000000
v -0.773800 0.231640 1.868119
v -1.429797 0.231640 1.429796
v 1.429797 0.231640 -1.429795
v 1.868119 0.231640 -0.773799
v -0.628615 0.231640 1.257105
v -0.628615 0.659482 1.257105
v -1.257105 0.659482 0.628615
v -1.257105 0.231640 0.628615
v -0.942860 0.231640 0.942860
v 0.628615 0.659482 -1.257105
v 1.257105 0.659482 -0.628615
v 1.257105 0.231640 -0.628615
v 0.942861 0.231640 -0.942860
v 0.628615 0.231640 -1.257105
v 0.773800 -0.231640 1.868119
v 1.868119 -0.231640 0.773800
v 1.429796 -0.231640 1.429796
v -0.000000 0.231640 2.022037
v -0.000000 0.231640 1.257105
v 1.257105 0.231640 0.000000
v 2.022037 0.231640 0.000000
v 0.773800 0.231640 1.868119
v 0.628615 0.231640 1.257105
v 1.257105 0.231640 0.628615
v 1.868119 0.231640 0.773800
v 0.628615 0.659482 1.257105
v 1.257105 0.659482 0.628615
v -0.628615 0.659482 -1.257105
v -1.257105 0.659482 -0.628615
v 1.429796 0.231640 1.429796
v 0.942860 0.231640 0.942860
v 0.773801 -0.231640 -1.868118
v -1.868119 -0.231640 0.773800
v 0.773801 0.231640 -1.868118
v -1.868119 0.231640 0.773800
v 0.000001 -0.231640 -2.022037
v -2.022037 -0.231640 -0.000001
v -0.773799 -0.231640 -1.868119
v -1.868119 -0.231640 -0.773801
v 0.000001 0.231640 -2.022037
v 0.000001 0.231640 -1.257105
v -1.257105 0.231640 -0.000000
v -2.022037 0.231640 -0.000001
v -1.429796 -0.231640 -1.429797
v -0.773799 0.231640 -1.868119
v -0.628615 0.231640 -1.257105
v -1.257105 0.231640 -0.628615
v -1.868119 0.231640 -0.773801
v -0.942860 0.231640 -0.942861
v -1.429796 0.231640 -1.429797
v 0.000000 0.659482 1.257105
v 0.000000 0.659482 -1.257105
v 1.257105 0.659482 0.000000
v 0.000000 0.659482 0.000000
v -1.257105 0.659482 0.000000
v -0.942860 0.659482 -0.942860
v 0.000000 0.659482 -0.942860
v 0.942860 0.659482 -0.942860
v 0.942860 0.659482 0.942860
v 0.942860 0.659482 0.000000
v -0.942860 0.659482 0.000000
v -0.942860 0.659482 0.942860
v 0.000000 0.659482 0.942860
v -1.322795 -0.231640 -1.322796
v -0.715891 -0.231640 -1.728317
v 0.000001 -0.231640 -1.870716
v 0.715893 -0.231640 -1.728316
v 1.322797 -0.231640 -1.322795
v 1.728317 -0.231640 -0.715891
v 1.870716 -0.231640 0.000000
v 1.728316 -0.231640 0.715892
v 1.322796 -0.231640 1.322796
v 0.715892 -0.231640 1.728316
v -0.000000 -0.231640 1.870716
v -0.715892 -0.231640 1.728316
v -1.322796 -0.231640 1.322796
v -1.728316 -0.231640 0.715891
v -1.870716 -0.231640 -0.000001
v -1.728316 -0.231640 -0.715893
v -0.000000 -0.231640 0.000000
vt 0.956321 0.182895
vt 0.973740 0.146356
vt 0.062210 0.021450
vt 0.002705 0.321412
vt 0.975850 0.105932
vt 0.616421 0.019669
vt 0.926245 0.209987
vt 0.062250 0.309569
vt 0.962330 0.067778
vt 0.556112 0.020041
vt 0.888091 0.223507
vt 0.112730 0.275842
vt 0.847667 0.221397
vt 0.435493 0.020784
vt 0.047412 0.259327
vt 0.676192 0.060819
vt 0.253886 0.061588
vt 0.748650 0.110121
vt 0.070511 0.236212
vt 0.624972 0.060825
vt 0.326337 0.061369
vt 0.326486 0.110680
vt 0.093611 0.213097
vt 0.099443 0.214190
vt 0.377557 0.061214
vt 0.070533 0.097350
vt 0.428927 0.110370
vt 0.099545 0.117249
vt 0.790045 0.058786
vt 0.772626 0.095325
vt 0.062259 0.022064
vt 0.002358 0.322085
vt 0.770516 0.135749
vt 0.112737 0.055794
vt 0.820121 0.031694
vt 0.062162 0.310199
vt 0.784036 0.173903
vt 0.556112 0.020040
vt 0.858275 0.018174
vt 0.112865 0.276333
vt 0.898698 0.020283
vt 0.435493 0.020784
vt 0.047408 0.259598
vt 0.676120 0.060312
vt 0.253956 0.060870
vt 0.001125 0.074466
vt 0.070575 0.236416
vt 0.624900 0.060467
vt 0.326408 0.060862
vt 0.326414 0.110173
vt 0.093743 0.213234
vt 0.099529 0.214412
vt 0.377628 0.060855
vt 0.070464 0.097550
vt 0.099446 0.117445
vt 0.428855 0.110160
vt 0.495802 0.020412
vt 0.501300 0.060840
vt 0.099537 0.165831
vt 0.495802 0.020412
vt 0.001133 0.097574
vt 0.070488 0.166881
vt 0.001157 0.166905
vt 0.501306 0.110151
vt 0.001000 0.097371
vt 0.070554 0.166883
vt 0.093729 0.166876
vt 0.896789 0.027809
vt 0.859390 0.025857
vt 0.935238 0.037702
vt 0.930594 0.043924
vt 0.873183 0.120840
vt 0.824092 0.038365
vt 0.955658 0.071749
vt 0.796266 0.063430
vt 0.968167 0.107048
vt 0.780151 0.097234
vt 0.966215 0.144447
vt 0.778199 0.134633
vt 0.950099 0.178251
vt 0.790708 0.169932
vt 0.922274 0.203316
vt 0.811128 0.203979
vt 0.815772 0.197757
vt 0.886975 0.215824
vt 0.849577 0.213872
vt 0.377634 0.110166
vt 0.047349 0.074450
vt 0.001042 0.236437
vt 0.253963 0.110182
vt 0.748720 0.109404
vt 0.001049 0.259612
vt 0.001180 0.236236
vt 0.001021 0.166904
vt 0.624978 0.110136
vt 0.676198 0.110130
vt 0.002713 0.069080
vt 0.002368 0.262968
vt 0.748571 0.060093
vt 0.002400 0.068661
vt 0.002707 0.262549
vt 0.748644 0.060810
vt 0.001188 0.259343
vt 0.000993 0.074196
vt 0.254035 0.110898
vt 0.377706 0.110525
vt 0.047351 0.074182
vt 0.625049 0.109777
vt 0.676269 0.109623
vt 0.501378 0.110151
vt 0.573829 0.109932
vt 0.093595 0.166873
vt 0.573757 0.110142
vt 0.314875 0.021526
vt 0.375184 0.021155
vt 0.146749 0.225640
vt 0.075239 0.238694
vt 0.050949 0.262976
vt 0.573680 0.060621
vt 0.002715 0.010217
vt 0.737039 0.018924
vt 0.254565 0.021898
vt 0.501229 0.060840
vt 0.158654 0.165840
vt 0.254783 0.057312
vt 0.737258 0.054338
vt 0.315093 0.056940
vt 0.375402 0.056569
vt 0.435711 0.056197
vt 0.051085 0.069081
vt 0.676730 0.019296
vt 0.428778 0.061059
vt 0.146768 0.106036
vt 0.496021 0.055826
vt 0.676949 0.054710
vt 0.556330 0.055455
vt 0.616421 0.019668
vt 0.112902 0.055333
vt 0.616639 0.055082
vt 0.616639 0.055083
vt 0.075261 0.238371
vt 0.051079 0.262551
vt 0.573751 0.060831
vt 0.314874 0.021529
vt 0.375184 0.021156
vt 0.146461 0.225364
vt 0.093714 0.120517
vt 0.093579 0.120649
vt 0.002410 0.009544
vt 0.737040 0.018927
vt 0.254565 0.021901
vt 0.099445 0.165818
vt 0.158307 0.165820
vt 0.254784 0.057315
vt 0.737258 0.054341
vt 0.050981 0.068669
vt 0.676730 0.019298
vt 0.428849 0.060849
vt 0.146465 0.106275
vt 0.315093 0.056942
vt 0.375402 0.056570
vt 0.435711 0.056198
vt 0.496021 0.055826
vt 0.075263 0.092959
vt 0.075266 0.093263
vt 0.676948 0.054712
vt 0.556330 0.055454
vn -0.707107 0.000000 0.707107
vn -0.382684 0.000000 0.923879
vn -0.382684 0.000000 0.923879
vn -0.707107 0.000000 0.707107
vn 0.923880 0.000000 -0.382683
vn 0.707107 0.000000 -0.707106
vn 0.707107 0.000000 -0.707106
vn 0.923880 0.000000 -0.382683
vn -0.707107 -0.000000 0.707107
vn -0.707107 -0.000000 0.707107
vn -0.707107 0.000000 0.707107
vn -0.707107 0.000000 0.707107
vn 0.707107 -0.000000 -0.707107
vn 0.707107 -0.000000 -0.707107
vn 0.707107 -0.000000 -0.707107
vn 0.707107 -0.000000 -0.707107
vn 0.000000 1.000000 0.000000
vn 0.000000 1.000000 0.000000
vn 0.000000 1.000000 0.000000
vn 0.000000 1.000000 0.000000
vn 0.000000 1.000000 0.000000
vn 0.000000 1.000000 0.000000
vn 0.000000 1.000000 0.000000
vn 0.000000 1.000000 0.000000
vn 0.000000 1.000000 0.000000
vn 0.000000 1.000000 0.000000
vn 0.000000 1.000000 0.000000
vn 0.000000 1.000000 0.000000
vn -0.000000 0.000000 1.000000
vn -0.000000 0.000000 1.000000
vn 1.000000 0.000000 0.000000
vn 1.000000 0.000000 0.000000
vn 0.000000 1.000000 0.000000
vn 0.000000 1.000000 0.000000
vn 0.000000 1.000000 -0.000000
vn 0.000000 1.000000 -0.000000
vn 0.382683 0.000000 0.923880
vn 0.382683 0.000000 0.923880
vn 0.923880 0.000000 0.382684
vn 0.923880 0.000000 0.382684
vn 0.000000 1.000000 0.000000
vn 0.000000 1.000000 0.000000
vn 0.000000 1.000000 0.000000
vn 0.000000 1.000000 0.000000
vn 0.707107 0.000000 0.707107
vn 0.707107 0.000000 0.707107
vn 0.707107 -0.000000 0.707107
vn 0.707107 -0.000000 0.707107
vn 0.707107 -0.000000 0.707107
vn 0.707107 -0.000000 0.707107
vn 0.000000 1.000000 -0.000000
vn 0.000000 1.000000 -0.000000
vn 0.000000 0.000000 1.000000
vn 0.000000 0.000000 1.000000
vn 0.000000 0.000000 1.000000
vn 0.000000 0.000000 1.000000
vn 1.000000 0.000000 0.000000
vn 1.000000 0.000000 0.000000
vn 1.000000 0.000000 0.000000
vn 1.000000 0.000000 0.000000
vn 0.000000 1.000000 0.000000
vn 0.000000 1.000000 0.000000
vn 0.000000 1.000000 0.000000
vn 0.000000 1.000000 0.000000
vn 0.382684 0.000000 -0.923879
vn 0.382684 0.000000 -0.923879
vn -0.923880 0.000000 0.382683
vn -0.923880 0.000000 0.382683
vn 0.000000 1.000000 0.000000
vn 0.000000 1.000000 0.000000
vn 0.000000 1.000000 0.000000
vn 0.000000 1.000000 0.000000
vn 0.000001 0.000000 -1.000000
vn 0.000001 0.000000 -1.000000
vn -1.000000 0.000000 -0.000000
vn -1.000000 0.000000 -0.000000
vn 0.000000 1.000000 -0.000000
vn 0.000000 1.000000 -0.000000
vn 0.000000 1.000000 0.000000
vn 0.000000 1.000000 0.000000
vn -0.707107 -0.000000 -0.707107
vn -0.707107 -0.000000 -0.707107
vn -0.707107 -0.000000 -0.707107
vn -0.707107 -0.000000 -0.707107
vn -0.382683 0.000000 -0.923880
vn -0.382683 0.000000 -0.923880
vn -0.923879 0.000000 -0.382684
vn -0.923879 0.000000 -0.382684
vn -0.707106 0.000000 -0.707107
vn -0.707106 0.000000 -0.707107
vn 0.000000 0.000000 -1.000000
vn 0.000000 0.000000 -1.000000
vn 0.000000 0.000000 -1.000000
vn 0.000000 0.000000 -1.000000
vn -1.000000 -0.000000 0.000000
vn -1.000000 -0.000000 0.000000
vn -1.000000 0.000000 0.000000
vn -1.000000 0.000000 0.000000
vn 0.000000 1.000000 -0.000000
vn 0.000000 1.000000 -0.000000
vn 0.000000 1.000000 0.000000
vn 0.000000 1.000000 0.000000
vn 0.000000 1.000000 -0.000000
vn 0.000000 1.000000 -0.000000
vn 0.000000 1.000000 0.000000
vn 0.000000 1.000000 -0.000000
vn 0.000000 1.000000 -0.000000
vn 0.000000 1.000000 -0.000000
vn -0.707107 0.000000 -0.707107
vn -0.707107 0.000000 -0.707107
vn 0.707107 0.000000 -0.707107
vn 0.707107 0.000000 -0.707107
vn 1.000000 0.000000 0.000000
vn 1.000000 0.000000 0.000000
vn -1.000000 0.000000 0.000000
vn -1.000000 0.000000 0.000000
vn 0.000000 0.000000 1.000000
vn 0.000000 0.000000 1.000000
vn 0.707107 -0.000000 0.707107
vn 0.707107 -0.000000 0.707107
vn 0.000000 1.000000 0.000000
vn 0.000000 1.000000 0.000000
vn 0.000000 1.000000 0.000000
vn 0.000000 1.000000 0.000000
vn 0.000000 1.000000 -0.000000
vn 0.000000 1.000000 0.000000
vn -0.707107 0.000000 0.707107
vn -0.707107 0.000000 0.707107
vn 0.000000 1.000000 0.000000
vn 0.000000 1.000000 0.000000
vn 0.000000 1.000000 0.000000
vn 0.000000 -1.000000 0.000000
vn 0.000000 -1.000000 0.000000
vn 0.000000 -1.000000 0.000000
vn 0.000000 -1.000000 0.000000
vn 0.000000 -1.000000 0.000000
vn 0.000000 -1.000000 0.000000
vn 0.000000 -1.000000 0.000000
vn 0.000000 -1.000000 0.000000
vn 0.000000 -1.000000 0.000000
vn 0.000000 -1.000000 0.000000
vn 0.000000 -1.000000 0.000000
vn 0.000000 -1.000000 0.000000
vn 0.000000 -1.000000 -0.000000
vn 0.000000 -1.000000 -0.000000
vn 0.000000 -1.000000 -0.000000
vn 0.000000 -1.000000 -0.000000
vn 0.000000 -1.000000 -0.000000
vn 0.000000 -1.000000 -0.000000
vn 0.000000 -1.000000 -0.000000
vn 0.000000 -1.000000 -0.000000
vn 0.000000 -1.000000 0.000000
vn 0.000000 -1.000000 0.000000
vn 0.000000 -1.000000 0.000000
vn 0.000000 -1.000000 0.000000
vn 0.000000 -1.000000 0.000000
vn 0.000000 -1.000000 0.000000
vn 0.000000 -1.000000 0.000000
vn 0.000000 -1.000000 0.000000
vn 0.000000 -1.000000 0.000000
vn 0.000000 -1.000000 0.000000
vn 0.000000 -1.000000 0.000000
vn 0.000000 -1.000000 0.000000
vn 0.000000 -1.000000 0.000000
vn 0.000000 -1.000000 0.000000
vn 0.000000 -1.000000 0.000000
vn 0.000000 -1.000000 0.000000
vn 0.000000 -1.000000 -0.000000
vn 0.000000 -1.000000 -0.000000
vn 0.000000 -1.000000 -0.000000
vn 0.000000 -1.000000 -0.000000
vn 0.000000 -1.000000 -0.000000
vn 0.000000 -1.000000 -0.000000
vn 0.000000 -1.000000 -0.000000
vn 0.000000 -1.000000 -0.000000
vn 0.000000 -1.000000 0.000000
vn 0.000000 -1.000000 0.000000
vn 0.000000 -1.000000 0.000000
vn 0.000000 -1.000000 0.000000
vn 0.000000 -1.000000 -0.000000
vn 0.000000 -1.000000 -0.000000
vn 0.000000 -1.000000 -0.000000
vn 0.000000 -1.000000 -0.000000
vn 0.000000 -1.000000 0.000000
vn 0.000000 -1.000000 0.000000
vn 0.000000 -1.000000 0.000000
vn 0.000000 -1.000000 0.000000
vn 0.000000 -1.000000 -0.000000
vn 0.000000 -1.000000 -0.000000
vn 0.000000 -1.000000 -0.000000
vn 0.000000 -1.000000 -0.000000
vn 0.000000 -1.000000 -0.000000
vn 0.000000 -1.000000 -0.000000
vn 0.000000 -1.000000 -0.000000
vn 0.000000 -1.000000 -0.000000
vn 0.000000 -1.000000 0.000000
vn 0.000000 -1.000000 0.000000
vn 0.000000 -1.000000 0.000000
vn 0.000000 -1.000000 0.000000
vn 0.000000 -1.000000 0.000000
vn 0.000000 -1.000000 0.000000
vn -0.000000 -1.000000 0.000000
vn -0.000000 -1.000000 0.000000
vn -0.000000 -1.000000 0.000000
vn -0.000000 -1.000000 0.000000
vn -0.000000 -1.000000 0.000000
vn -0.000000 -1.000000 0.000000
vn -0.000000 -1.000000 0.000000
vn -0.000000 -1.000000 0.000000
vn -0.000000 -1.000000 0.000000
vn -0.000000 -1.000000 0.000000
vn -0.000000 -1.000000 0.000000
vn -0.000000 -1.000000 0.000000
vn -0.000000 -1.000000 0.000000
vn -0.000000 -1.000000 0.000000
vn -0.000000 -1.000000 0.000000
vn -0.000000 -1.000000 0.000000
vn -0.000000 -1.000000 0.000000
vn -0.000000 -1.000000 0.000000
vn -0.000000 -1.000000 0.000000
vn -0.000000 -1.000000 0.000000
vn -0.000000 -1.000000 0.000000
vn -0.000000 -1.000000 -0.000000
vn -0.000000 -1.000000 -0.000000
vn -0.000000 -1.000000 -0.000000
vn 0.000000 -1.000000 -0.000000
vn 0.000000 -1.000000 -0.000000
vn 0.000000 -1.000000 -0.000000
vn 0.000000 -1.000000 0.000000
vn 0.000000 -1.000000 0.000000
vn 0.000000 -1.000000 0.000000
vn 0.000000 -1.000000 0.000000
vn 0.000000 -1.000000 0.000000
vn 0.000000 -1.000000 0.000000
vn 0.000000 -1.000000 0.000000
vn 0.000000 -1.000000 0.000000
vn 0.000000 -1.000000 0.000000
vn 0.000000 -1.000000 0.000000
vn 0.000000 -1.000000 0.000000
vn 0.000000 -1.000000 0.000000
vn 0.000000 -1.000000 0.000000
vn 0.000000 -1.000000 0.000000
vn 0.000000 -1.000000 0.000000
vn 0.000000 0.000000 -1.000000
vn 0.000000 0.000000 -1.000000
s 1
g polySurface1
usemtl lambert1SG
f 232/486/347 231/514/348 237/385/349 238/484/350
f 234/513/351 233/487/352 239/353/353 240/504/354
s 3
f 241/505/355 242/403/356 298/434/357 245/400/358
s 4
f 246/374/359 294/453/360 249/372/361 250/479/362
s 5
f 238/381/363 237/506/364 241/402/365 245/512/366
f 240/350/367 239/485/368 249/511/369 248/503/370
f 241/402/365 237/506/364 254/500/371 255/499/372
f 256/447/373 257/496/374 240/350/367 248/503/370
s 1
f 231/514/348 235/510/375 254/404/376 237/385/349
f 236/502/377 234/513/351 240/504/354 257/497/378
s 5
f 255/499/372 254/500/371 258/493/379 259/371/380
f 260/489/381 261/355/382 257/351/374 256/448/373
s 1
f 235/510/375 251/509/383 258/361/384 254/404/376
f 252/507/385 236/501/377 257/498/378 261/491/386
s 7
f 297/408/387 298/401/388 299/409/389 290/410/390
s 1
f 251/509/383 253/508/391 266/492/392 258/361/384
f 253/508/391 252/507/385 261/491/386 266/492/392
s 8
f 267/367/393 295/442/394 262/460/395 259/490/396
s 5
f 258/493/379 266/359/397 267/488/398 259/371/380
f 266/359/397 261/355/382 260/489/381 267/488/398
s 9
f 242/403/399 241/505/400 255/405/401 287/411/402
s 10
f 263/443/403 260/363/404 256/449/405 289/365/406
s 5
f 239/485/368 270/480/407 250/375/408 249/511/369
f 271/378/409 238/381/363 245/512/366 244/477/410
s 1
f 233/487/352 268/483/411 270/357/412 239/353/353
f 269/482/413 232/486/347 238/484/350 271/478/414
s 5
f 250/375/408 270/480/407 276/471/415 277/406/416
f 278/444/417 279/467/418 271/378/409 244/477/410
s 1
f 268/483/411 272/481/419 276/407/420 270/357/412
f 273/473/421 269/482/413 271/478/414 279/468/422
s 5
f 277/406/416 276/471/415 281/463/423 282/399/424
f 283/465/425 284/383/426 279/379/418 278/445/417
s 11
f 285/395/427 292/455/428 264/458/429 282/466/430
s 1
f 272/481/419 274/476/431 281/389/432 276/407/420
f 275/474/433 273/472/421 279/469/422 284/461/434
f 274/476/431 280/475/435 286/462/436 281/389/432
f 280/475/435 275/474/433 284/461/434 286/462/436
s 12
f 282/466/437 264/458/438 288/457/439 277/470/440
s 13
f 265/456/441 283/391/442 278/446/443 291/438/444
s 5
f 281/463/423 286/387/445 285/464/446 282/399/424
f 286/387/445 284/383/426 283/465/425 285/464/446
s 7
f 295/366/447 296/440/448 290/410/390 299/409/389
f 288/414/449 293/413/450 294/373/451 246/494/452
f 292/394/453 293/413/450 288/414/449 264/398/454
s 11
f 265/456/455 292/455/428 285/395/427 283/391/456
s 7
f 292/394/453 297/436/387 290/441/390 293/413/450
f 294/373/451 293/413/450 290/441/390 296/412/448
s 4
f 249/372/361 294/453/360 247/369/457 248/368/458
s 10
f 289/452/406 256/364/405 248/368/459 247/369/460
s 13
f 291/437/444 278/392/443 244/396/461 243/397/462
s 9
f 287/411/402 255/405/401 259/490/463 262/460/464
s 8
f 260/363/465 263/443/466 295/442/394 267/367/393
s 7
f 289/450/467 296/440/448 295/366/447 263/362/468
f 294/373/451 296/412/448 289/451/467 247/454/469
f 291/439/470 297/436/387 292/394/453 265/390/471
f 243/435/472 298/401/388 297/408/387 291/393/470
s 3
f 245/400/358 298/434/357 243/397/473 244/396/474
s 7
f 299/409/389 298/401/388 242/495/475 287/459/476
f 295/366/447 299/409/389 287/459/476 262/370/477
s off
f 280/386/478 274/388/479 301/415/480 300/416/481
f 274/388/482 272/417/483 302/418/484 301/415/485
f 272/417/486 268/356/487 303/421/488 302/418/489
f 268/356/490 233/352/491 304/423/492 303/421/493
f 233/352/494 234/349/495 305/425/496 304/423/497
f 234/349/498 236/348/499 306/427/500 305/425/501
f 236/348/502 252/354/503 307/429/504 306/427/505
f 252/354/506 253/358/507 308/432/508 307/429/509
f 253/358/510 251/360/511 309/433/512 308/432/513
f 251/360/514 235/430/515 310/431/516 309/433/517
f 235/430/518 231/384/519 311/428/520 310/431/521
f 231/384/522 232/380/523 312/426/524 311/428/525
f 232/380/526 269/377/527 313/424/528 312/426/529
f 269/377/530 273/376/531 314/422/532 313/424/533
f 273/376/534 275/382/535 315/420/536 314/422/537
f 275/382/538 280/386/539 300/416/540 315/420/541
f 300/416/542 301/415/543 316/419/544
f 301/415/545 302/418/546 316/419/547
f 302/418/548 303/421/549 316/419/550
f 303/421/551 304/423/552 316/419/553
f 304/423/554 305/425/555 316/419/556
f 305/425/557 306/427/558 316/419/559
f 306/427/560 307/429/561 316/419/562
f 307/429/563 308/432/564 316/419/565
f 308/432/566 309/433/567 316/419/568
f 309/433/569 310/431/570 316/419/571
f 310/431/572 311/428/573 316/419/574
f 311/428/575 312/426/576 316/419/577
f 312/426/578 313/424/579 316/419/580
f 313/424/581 314/422/582 316/419/583
f 314/422/584 315/420/585 316/419/586
f 315/420/587 300/416/588 316/419/589
s 12
f 277/470/440 288/457/439 246/374/590 250/479/591
g default
v -2.349859 11.510960 -2.359639
v 2.349859 11.510960 -2.359639
v -2.349859 10.724730 1.076463
v 2.349859 10.724730 1.076463
v -2.292359 10.643752 1.430354
v -2.125489 10.570704 1.749603
v -1.166784 12.883041 -0.598399
v -0.998935 11.977263 0.998935
v -0.998935 12.888122 -0.598399
v -1.865584 10.512731 2.002961
v -1.166784 11.877773 1.166784
v -2.349859 11.327677 1.214426
v -2.292359 11.246700 1.568316
v 1.175047 11.065634 2.359640
v -1.865584 11.115678 2.140923
v -1.538084 11.078457 2.303589
v -1.175047 11.065634 2.359640
v -1.538084 10.475510 2.165627
v -2.125489 11.173652 1.887566
v -1.175047 10.462687 2.221678
v 1.538084 11.078457 2.303589
v 1.865584 10.512731 2.002961
v 1.175047 10.462687 2.221678
v 2.292359 10.643752 1.430354
v 2.349859 11.327677 1.214426
v 2.292359 11.246700 1.568316
v 1.865584 11.115678 2.140923
v 2.125489 10.570704 1.749603
v 2.125489 11.173652 1.887566
v 0.998935 11.977263 0.998935
v 1.166784 12.883041 -0.598399
v 0.998935 12.888122 -0.598399
v 1.166784 11.877773 1.166784
v 1.538084 10.475510 2.165627
v -2.349859 12.113907 -2.221677
v 2.349859 12.113907 -2.221677
v -0.998935 12.888119 -0.998935
v -0.998935 11.866524 -0.598399
v -0.998935 11.866524 -0.998935
v -1.166784 12.883038 -1.166784
v 0.998935 11.866524 -0.598399
v 0.998935 11.866524 -0.998935
v -0.998935 11.866512 0.998935
v 0.998935 12.888119 -0.998935
v 1.166784 12.883038 -1.166784
v 0.998935 11.866512 0.998935
v 1.166784 11.338578 1.166784
v -1.166784 11.338578 1.166784
v -1.166784 11.872532 -1.166784
v 1.166784 11.872532 -1.166784
v 0.000000 11.866524 -0.598399
v 0.000000 11.866524 -0.998935
v 0.000000 12.888119 -0.998935
v 0.000000 12.883038 -1.166784
v 0.000000 11.872532 -1.166784
v 0.000000 11.338578 1.166784
v 0.000000 11.877773 1.166784
v 0.000000 11.977263 0.998935
v 0.000000 11.866512 0.998935
v 0.000000 11.510960 -2.359639
v 0.000000 12.113907 -2.221677
v 0.000000 11.065634 2.359640
v 0.000000 10.462687 2.221678
v 1.919051 12.017815 -1.801723
v 1.919051 11.375727 1.004428
v 0.000000 12.017815 -1.801723
v -1.919051 12.017815 -1.801723
v -1.919051 11.375727 1.004428
v -1.872093 11.309596 1.293438
v -1.735816 11.249940 1.554159
v -1.523560 11.202595 1.761067
v -1.256102 11.172197 1.893911
v -0.959622 11.161725 1.939686
v 0.000000 11.161725 1.939686
v 0.959622 11.161725 1.939686
v 1.256102 11.172197 1.893911
v 1.523560 11.202595 1.761067
v 1.735816 11.249940 1.554159
v 1.872093 11.309596 1.293438
v 1.166784 12.175288 0.659841
v 0.998935 12.178892 0.656923
v 0.998935 11.866515 0.659841
v 0.000000 11.866515 0.659841
v -0.998935 11.866515 0.659841
v -0.998935 12.178891 0.656923
v -1.166784 12.175289 0.659841
v -1.166784 11.445369 0.700071
v 1.166784 11.450788 0.676381
v 1.166784 11.744751 -0.608339
v 1.919051 11.743398 -0.602423
v 2.349859 11.741399 -0.593683
v 2.349859 11.108454 -0.600548
v 0.000000 11.108453 -0.600549
v -2.349859 11.108454 -0.600548
v -2.349859 11.741399 -0.593683
v -1.919051 11.740203 -0.588460
v -1.166784 11.740202 -0.588459
v 0.000000 10.724729 1.076463
v 0.000000 10.692316 1.218118
v 0.000000 10.650220 1.402090
v 0.000000 10.587467 1.676340
v 0.000000 10.533964 1.875119
vt 0.339674 0.363577
vt 0.339685 0.295987
vt 0.362852 0.301028
vt 0.362841 0.363580
vt 0.339696 0.231551
vt 0.362863 0.231555
vt 0.339698 0.217954
vt 0.362866 0.217958
vt 0.339701 0.205687
vt 0.362868 0.205691
vt 0.339702 0.195953
vt 0.362869 0.195956
vt 0.518708 0.705144
vt 0.518710 0.733588
vt 0.446163 0.733592
vt 0.446162 0.705148
vt 0.468350 0.822735
vt 0.446167 0.822943
vt 0.454033 0.847023
vt 0.446168 0.847023
vt 0.354941 0.733009
vt 0.354949 0.704566
vt 0.427496 0.704588
vt 0.427487 0.733032
vt 0.427461 0.822383
vt 0.405278 0.822169
vt 0.419589 0.846461
vt 0.427454 0.846463
vt 0.363632 0.549140
vt 0.340464 0.554174
vt 0.340474 0.486584
vt 0.363641 0.486588
vt 0.363622 0.618613
vt 0.340455 0.618609
vt 0.340453 0.632207
vt 0.363620 0.632210
vt 0.340451 0.644473
vt 0.363618 0.644477
vt 0.340450 0.654208
vt 0.363617 0.654212
vt 0.770643 0.822085
vt 0.808933 0.822004
vt 0.830137 0.857958
vt 0.778297 0.855212
vt 0.880586 0.947203
vt 0.799428 0.946670
vt 0.880672 0.987566
vt 0.808913 0.987718
vt 0.511865 0.992724
vt 0.440113 0.991676
vt 0.440702 0.951317
vt 0.521517 0.953204
vt 0.492262 0.862709
vt 0.543723 0.862286
vt 0.513913 0.827022
vt 0.552199 0.827581
vt 0.086904 0.568491
vt 0.086905 0.645547
vt 0.029220 0.645547
vt 0.029220 0.568491
vt 0.141897 0.568491
vt 0.141897 0.645547
vt 0.086905 0.491434
vt 0.029220 0.491434
vt 0.146542 0.568491
vt 0.153502 0.643662
vt 0.141897 0.491434
vt 0.152575 0.568491
vt 0.163971 0.638190
vt 0.153502 0.493320
vt 0.161568 0.568491
vt 0.172279 0.629667
vt 0.163971 0.498792
vt 0.168087 0.568491
vt 0.177613 0.618928
vt 0.172279 0.507315
vt 0.179451 0.607023
vt 0.179451 0.568491
vt 0.177613 0.518054
vt 0.179451 0.529959
vt 0.569181 0.984417
vt 0.569181 0.944054
vt 0.581101 0.944054
vt 0.581101 0.972497
vt 0.569181 0.854702
vt 0.581101 0.854910
vt 0.652038 0.972497
vt 0.652038 0.984417
vt 0.581101 0.830622
vt 0.569181 0.818703
vt 0.734895 0.984417
vt 0.722976 0.972497
vt 0.652038 0.818703
vt 0.652038 0.830622
vt 0.734895 0.944054
vt 0.722976 0.944054
vt 0.734895 0.818703
vt 0.722976 0.830622
vt 0.722976 0.854910
vt 0.734895 0.854702
vt 0.747189 0.717454
vt 0.747189 0.689011
vt 0.818127 0.689011
vt 0.818127 0.717454
vt 0.747189 0.599659
vt 0.818127 0.599659
vt 0.889064 0.689011
vt 0.889064 0.717454
vt 0.747189 0.575579
vt 0.818127 0.575579
vt 0.889064 0.599659
vt 0.889064 0.575579
vt 0.862094 0.512624
vt 0.861473 0.482031
vt 0.977082 0.482031
vt 0.947260 0.512624
vt 0.733074 0.482031
vt 0.747986 0.512624
vt 0.977082 0.648901
vt 0.947260 0.648901
vt 0.902171 0.566044
vt 0.862514 0.566044
vt 0.771282 0.566044
vt 0.707943 0.486114
vt 0.727463 0.515958
vt 0.977082 0.815772
vt 0.947260 0.785179
vt 0.902171 0.648901
vt 0.736457 0.566044
vt 0.685272 0.497964
vt 0.708948 0.525636
vt 0.861473 0.815772
vt 0.861102 0.785179
vt 0.902171 0.731758
vt 0.694255 0.540709
vt 0.667280 0.516420
vt 0.733074 0.815772
vt 0.747986 0.785179
vt 0.861102 0.731758
vt 0.684821 0.559702
vt 0.681571 0.580756
vt 0.655729 0.539677
vt 0.707943 0.811689
vt 0.727463 0.781845
vt 0.769600 0.731758
vt 0.681571 0.648901
vt 0.736457 0.648901
vt 0.651748 0.565458
vt 0.685272 0.799839
vt 0.708948 0.772167
vt 0.736457 0.731758
vt 0.651748 0.648901
vt 0.681571 0.717047
vt 0.667280 0.781382
vt 0.694255 0.757094
vt 0.651748 0.732345
vt 0.684821 0.738101
vt 0.655729 0.758126
vt 0.410490 0.371979
vt 0.367673 0.371979
vt 0.367673 0.205109
vt 0.410490 0.205109
vt 0.367673 0.538850
vt 0.410490 0.538850
vt 0.314019 0.487830
vt 0.312624 0.475563
vt 0.335208 0.475563
vt 0.336602 0.487830
vt 0.312144 0.461965
vt 0.334728 0.461965
vt 0.312144 0.417954
vt 0.334728 0.417954
vt 0.312144 0.373943
vt 0.334728 0.373943
vt 0.312624 0.360345
vt 0.335208 0.360345
vt 0.314019 0.348079
vt 0.336602 0.348079
vt 0.654040 0.904133
vt 0.717121 0.904133
vt 0.717121 0.965815
vt 0.654040 0.965815
vt 0.717121 0.842451
vt 0.654040 0.842451
vt 0.551423 0.729640
vt 0.589713 0.729640
vt 0.589713 0.812497
vt 0.551423 0.812497
vt 0.551423 0.646783
vt 0.589713 0.646783
vt 0.432512 0.844114
vt 0.432512 0.773177
vt 0.440377 0.773177
vt 0.440377 0.844114
vt 0.432512 0.702239
vt 0.440377 0.702239
vt 0.590304 0.963470
vt 0.590304 0.901560
vt 0.643922 0.901560
vt 0.643922 0.963470
vt 0.590304 0.839649
vt 0.643922 0.839649
vn 0.000000 -0.974807 -0.223050
vn -0.000000 -0.974807 -0.223050
vn -0.000000 -0.974807 -0.223050
vn 0.000000 -0.974807 -0.223050
vn -0.006907 0.862022 0.506824
vn -0.015441 0.868786 0.494947
vn -0.015300 0.868676 0.495145
vn -0.006907 0.862022 0.506824
vn 0.015304 0.868676 0.495145
vn 0.015446 0.868786 0.494947
vn 0.006911 0.862022 0.506823
vn 0.006911 0.862022 0.506823
vn -1.000000 -0.000001 0.000000
vn -1.000000 -0.000000 0.000000
vn -1.000000 -0.000000 0.000000
vn -1.000000 -0.000001 0.000000
vn 0.000000 0.223049 -0.974807
vn 0.000000 0.223049 -0.974807
vn 0.000000 0.223049 -0.974807
vn 0.000000 0.223049 -0.974807
vn -0.999643 -0.005961 0.026053
vn -0.951056 -0.068926 0.301233
vn -0.951056 -0.068926 0.301232
vn -0.999643 -0.005961 0.026053
vn -0.809017 -0.131105 0.572977
vn -0.809017 -0.131105 0.572977
vn 1.000000 0.000000 0.000000
vn 1.000000 0.000000 0.000000
vn 1.000000 0.000000 0.000000
vn 1.000000 0.000000 0.000000
vn -0.587786 -0.180451 0.788635
vn -0.587786 -0.180451 0.788635
vn -0.030252 0.999542 -0.000009
vn -0.030252 0.999542 -0.000009
vn -0.030252 0.999542 -0.000009
vn -0.030252 0.999542 -0.000009
vn 0.000000 1.000000 0.000000
vn 0.000000 1.000000 0.000000
vn 0.000000 1.000000 0.000000
vn 0.000000 1.000000 0.000000
vn -0.309017 -0.212132 0.927097
vn -0.309017 -0.212132 0.927097
vn 1.000000 -0.000000 -0.000000
vn 1.000000 -0.000000 -0.000000
vn 1.000000 0.000000 0.000000
vn 1.000000 0.000000 0.000000
vn 0.000000 0.000000 1.000000
vn 0.000000 0.000000 1.000000
vn 0.000000 0.000000 1.000000
vn 0.000000 0.000000 1.000000
vn -0.037358 -0.222893 0.974127
vn -0.037357 -0.222893 0.974127
vn 0.000000 0.999542 -0.030261
vn 0.000000 0.999542 -0.030261
vn 0.000000 0.999542 -0.030261
vn 0.000000 0.999542 -0.030261
vn 0.000000 1.000000 0.000008
vn 0.000000 1.000000 0.000008
vn 0.000000 1.000000 0.000007
vn 0.000000 1.000000 0.000007
vn -1.000000 0.000000 0.000000
vn -1.000000 0.000000 0.000000
vn -1.000000 0.000000 0.000000
vn -1.000000 0.000000 0.000000
vn 0.000000 0.000000 1.000000
vn 0.000000 0.000000 1.000000
vn 0.000000 0.000000 1.000000
vn 0.000000 0.000000 1.000000
vn 0.000000 0.000000 -1.000000
vn 0.000000 0.000000 -1.000000
vn 0.000000 0.000000 -1.000000
vn 0.000000 0.000000 -1.000000
vn 0.000000 0.860238 0.509893
vn 0.000000 0.860238 0.509893
vn 0.000000 0.860238 0.509893
vn 0.000000 0.860238 0.509893
vn 0.000000 -0.223049 0.974807
vn 0.000000 -0.223049 0.974807
vn 0.037358 -0.222893 0.974127
vn 0.037357 -0.222893 0.974127
vn 0.030252 0.999542 -0.000009
vn 0.030252 0.999542 -0.000009
vn 0.030252 0.999542 -0.000009
vn 0.030252 0.999542 -0.000009
vn 1.000000 -0.000000 0.000000
vn 1.000000 0.000000 0.000000
vn 1.000000 -0.000000 0.000000
vn 1.000000 -0.000000 0.000000
vn -1.000000 0.000000 0.000000
vn -1.000000 0.000000 -0.000000
vn -1.000000 0.000000 0.000000
vn -1.000000 0.000000 0.000000
vn 0.309017 -0.212132 0.927097
vn 0.309017 -0.212132 0.927097
vn 0.951056 -0.068926 0.301233
vn 0.999643 -0.005961 0.026053
vn 0.999643 -0.005961 0.026053
vn 0.951057 -0.068926 0.301232
vn 0.587786 -0.180451 0.788635
vn 0.587786 -0.180451 0.788635
vn 0.809017 -0.131105 0.572977
vn 0.809017 -0.131105 0.572977
vn -1.000000 0.000000 0.000000
vn -1.000000 0.000000 0.000000
vn -1.000000 -0.000000 -0.000000
vn -1.000000 -0.000000 -0.000000
vn 0.000000 0.000000 -1.000000
vn 0.000000 0.000000 -1.000000
vn 0.000000 0.000000 -1.000000
vn 0.000000 0.000000 -1.000000
vn 1.000000 0.000000 0.000000
vn 1.000000 0.000000 0.000000
vn 1.000000 -0.000000 0.000000
vn 1.000000 -0.000000 0.000000
vn 0.000000 1.000000 0.000000
vn 0.000000 1.000000 0.000000
vn 0.000000 0.000000 1.000000
vn 0.000000 0.000000 1.000000
vn 0.000000 0.999542 -0.030260
vn 0.000000 0.999542 -0.030260
vn 0.000000 0.000000 -1.000000
vn 0.000000 0.000000 -1.000000
vn 0.000000 0.000000 1.000000
vn 0.000000 0.000000 1.000000
vn 0.000000 0.860238 0.509893
vn 0.000000 0.860238 0.509893
vn 0.000000 0.000000 -1.000000
vn 0.000000 0.000000 -1.000000
vn 0.000000 1.000000 0.000007
vn 0.000000 1.000000 0.000008
vn 0.000000 0.223049 -0.974807
vn 0.000000 0.223049 -0.974807
vn 0.000000 -0.974807 -0.223050
vn 0.000000 -0.974807 -0.223050
vn -0.000002 0.974807 0.223050
vn -0.000002 0.974807 0.223050
vn -0.000001 0.974807 0.223051
vn -0.000001 0.974807 0.223051
vn 0.000000 0.974807 0.223052
vn 0.000000 0.974807 0.223052
vn 0.000001 0.974807 0.223051
vn 0.000001 0.974807 0.223051
vn 0.000002 0.974807 0.223050
vn 0.000002 0.974807 0.223050
vn 0.000002 0.974807 0.223051
vn 0.000001 0.974807 0.223049
vn 0.000001 0.974807 0.223050
vn 0.000002 0.974807 0.223050
vn 0.000002 0.974806 0.223053
vn 0.000001 0.974806 0.223052
vn 0.000003 0.974806 0.223055
vn 0.000002 0.974806 0.223055
vn -0.000001 0.974807 0.223050
vn -0.000002 0.974807 0.223049
vn -0.000002 0.974808 0.223048
vn -0.000001 0.974807 0.223048
vn 0.000000 0.974807 0.223049
vn 0.000000 0.974807 0.223049
vn 0.000002 0.974807 0.223048
vn 0.000001 0.974807 0.223048
vn 0.000001 0.974807 0.223051
vn 0.000002 0.974807 0.223050
vn -0.000003 0.974806 0.223054
vn -0.000002 0.974806 0.223054
vn -0.000002 0.974807 0.223052
vn -0.000001 0.974807 0.223051
vn -0.000001 0.974807 0.223049
vn -0.000001 0.974807 0.223050
vn -0.000002 0.974807 0.223051
vn -0.000002 0.974807 0.223050
vn 0.000000 0.974807 0.223049
vn 0.000000 0.974807 0.223049
vn 0.000000 0.974807 0.223049
vn 0.000000 0.974807 0.223049
vn 0.000000 0.974807 0.223049
vn 0.000000 0.974807 0.223049
vn 0.000000 0.974807 0.223049
vn 0.000000 0.974807 0.223049
vn 0.000000 0.974807 0.223052
vn 0.000000 0.974807 0.223052
vn 0.000000 0.974807 0.223052
vn 0.000000 0.974807 0.223052
vn 0.000000 0.974807 0.223052
vn 0.000000 0.974807 0.223052
vn 0.000000 0.974807 0.223052
vn 0.000000 0.974807 0.223052
vn -0.000003 0.974806 0.223053
vn -0.000003 0.974806 0.223053
vn -0.000003 0.974806 0.223053
vn -0.000003 0.974806 0.223053
vn -0.000001 0.974806 0.223052
vn -0.000001 0.974806 0.223052
vn -0.000001 0.974806 0.223052
vn -0.000001 0.974806 0.223053
vn 0.000003 0.974806 0.223053
vn 0.000003 0.974806 0.223053
vn 0.000003 0.974806 0.223053
vn 0.000003 0.974806 0.223053
vn 0.000001 0.974806 0.223053
vn 0.000001 0.974806 0.223052
vn 0.000001 0.974806 0.223052
vn 0.000001 0.974806 0.223052
vn 0.018263 0.870970 0.490997
vn 0.018263 0.870970 0.490997
vn -1.000000 0.000000 -0.000000
vn -1.000000 0.000000 -0.000000
vn 0.000000 1.000000 0.000007
vn 0.000000 1.000000 0.000007
vn 0.000000 1.000000 0.000007
vn 1.000000 -0.000000 -0.000000
vn 1.000000 -0.000000 -0.000000
vn -0.018258 0.870970 0.490996
vn -0.018258 0.870970 0.490996
vn -1.000000 -0.000000 -0.000000
vn -1.000000 -0.000000 0.000000
vn -1.000000 -0.000000 0.000000
vn -1.000000 -0.000000 0.000000
vn 1.000000 -0.000000 0.000000
vn 1.000000 -0.000000 0.000000
vn 1.000000 -0.000000 0.000000
vn 1.000000 -0.000000 0.000000
vn 0.000001 0.974807 0.223050
vn 0.000001 0.974807 0.223050
vn 0.000001 0.974807 0.223050
vn 0.000001 0.974807 0.223050
vn 0.000000 0.974807 0.223051
vn -0.000000 0.974807 0.223050
vn -0.000000 0.974807 0.223050
vn 0.000000 0.974807 0.223051
vn -0.000002 0.974807 0.223050
vn -0.000002 0.974807 0.223050
vn -0.000002 0.974807 0.223050
vn -0.000002 0.974807 0.223050
vn 0.000000 0.974807 0.223050
vn 0.000000 0.974807 0.223050
vn 0.000000 0.974807 0.223050
vn 0.000000 0.974807 0.223050
vn -0.000000 0.974807 0.223050
vn -0.000000 0.974807 0.223050
vn -0.000000 -0.974806 -0.223053
vn -0.000000 -0.974807 -0.223052
vn 0.000000 -0.974807 -0.223051
vn 0.000000 -0.974807 -0.223051
vn 0.000000 -0.974806 -0.223052
vn -0.000000 -0.974807 -0.223051
vn 0.000000 0.974807 0.223050
vn 0.000000 0.974807 0.223050
vn 0.000842 -0.974227 -0.225567
vn -0.000000 -0.973576 -0.228364
vn -0.000000 -0.974807 -0.223051
vn -0.000000 -0.974807 -0.223050
vn -0.000842 -0.974227 -0.225567
vn 0.000000 -0.974807 -0.223049
vn 0.000000 -0.979003 -0.203844
vn -0.000000 -0.974329 -0.225127
vn 0.004843 -0.971918 -0.235272
vn 0.000734 -0.979003 -0.203844
vn -0.000734 -0.979003 -0.203844
vn -0.004843 -0.971917 -0.235273
s 1
g polySurface2
usemtl lambert1SG
f 409/571/592 410/572/593 317/573/594 376/574/595
s 2
f 324/603/596 401/600/597 402/599/598 327/604/599
s 3
f 396/614/600 397/613/601 346/612/602 349/611/603
s 4
f 317/515/604 410/516/605 411/517/606 351/518/607
s 5
f 376/673/608 377/674/609 352/675/610 318/676/611
s 4
f 319/519/612 321/521/613 329/522/614 328/520/615
f 321/521/613 322/523/616 335/524/617 329/522/614
s off
f 353/527/618 325/528/619 354/529/620 355/530/621
s 4
f 322/523/616 326/525/622 331/526/623 335/524/617
s off
f 356/595/624 323/596/625 325/597/626 353/598/627
s 7
f 355/615/628 354/616/629 367/617/630 368/618/631
s 4
f 326/679/622 334/680/632 332/681/633 331/682/623
s 8
f 400/532/634 401/531/635 324/533/636 359/534/637
s 9
f 368/693/638 369/694/639 353/695/640 355/696/641
s 4
f 334/680/632 336/683/642 333/684/643 332/681/633
s 10
f 369/601/644 370/602/645 356/595/646 353/598/647
s 11
f 359/623/648 375/624/649 399/620/650 400/619/651
s off
f 348/535/652 360/536/653 358/537/654 357/538/655
s 12
f 372/699/656 373/700/657 327/701/658 364/702/659
s 13
f 324/705/660 374/706/661 375/707/662 359/708/663
s 14
f 327/604/664 373/607/665 374/608/666 324/603/667
s 4
f 378/686/668 379/685/669 339/687/670 330/688/671
s off
f 347/609/672 361/605/673 360/606/674 348/610/675
s 4
f 407/543/676 408/544/677 318/545/678 352/546/679
s 16
f 346/541/680 397/540/681 398/539/682 362/542/683
s 4
f 339/687/670 350/689/684 337/690/685 330/688/671
f 340/549/686 320/548/687 341/547/688 342/550/689
f 350/689/684 338/691/690 343/692/691 337/690/685
f 344/551/692 340/549/686 342/550/689 345/552/693
f 338/553/690 344/551/692 345/552/693 343/554/691
s 17
f 364/555/694 327/556/695 402/557/696 403/558/697
s 18
f 356/711/698 370/712/699 371/713/700 365/714/701
s 19
f 366/563/702 361/564/703 347/565/704 405/566/705
s 7
f 368/618/631 367/617/630 357/621/706 358/622/707
s 9
f 360/697/708 369/694/639 368/693/638 358/698/709
s 10
f 361/605/710 370/602/645 369/601/644 360/606/711
s 18
f 371/713/700 370/712/699 361/715/712 366/716/713
s 12
f 363/703/714 349/704/715 373/700/657 372/699/656
s 14
f 374/608/666 373/607/665 349/611/716 346/612/717
s 13
f 375/707/662 374/706/661 346/709/718 362/710/719
s 11
f 398/625/720 399/620/650 375/624/649 362/626/721
s 5
f 351/677/722 377/674/609 376/673/608 317/678/723
s 4
f 333/684/643 336/683/642 379/685/669 378/686/668
s 1
f 408/577/724 409/571/592 376/574/595 318/578/725
s 20
f 406/627/726 407/628/727 352/629/728 380/630/729
f 352/629/728 377/633/730 382/634/731 380/630/729
f 377/633/730 351/640/732 383/641/733 382/634/731
f 351/640/732 411/646/734 412/647/735 383/641/733
f 328/651/736 329/657/737 385/658/738 384/652/739
f 329/657/737 335/663/740 386/664/741 385/658/738
f 335/663/740 331/668/742 387/669/743 386/664/741
f 331/668/742 332/672/744 388/671/745 387/669/743
f 332/672/744 333/670/746 389/667/747 388/671/745
f 333/670/746 378/666/748 390/660/749 389/667/747
f 378/666/748 330/662/750 391/655/751 390/660/749
f 330/662/750 337/656/752 392/654/753 391/655/751
f 337/656/752 343/650/754 393/649/755 392/654/753
f 343/650/754 345/644/756 394/645/757 393/649/755
f 345/644/756 342/638/758 395/639/759 394/645/757
f 342/638/758 341/631/760 381/632/761 395/639/759
s off
f 380/630/762 382/634/763 371/642/764 366/635/765
f 382/634/766 383/641/767 365/648/768 371/642/769
f 372/661/770 364/665/771 389/667/772 390/660/773
f 390/660/774 391/655/775 363/643/776 372/661/777
f 387/669/778 388/671/779 389/667/780 364/665/781
f 385/658/782 386/664/783 387/669/784 364/665/785
f 392/654/786 393/649/787 363/643/788 391/655/789
f 393/649/790 394/645/791 395/639/792 363/643/793
s 3
f 347/609/794 348/610/795 397/613/601 396/614/600
s 16
f 398/539/682 397/540/681 348/535/796 357/538/797
s 11
f 367/617/798 399/620/650 398/625/720 357/621/799
f 400/619/651 399/620/650 367/617/798 354/616/800
s 8
f 325/528/801 401/531/635 400/532/634 354/529/802
s 2
f 402/599/598 401/600/597 325/597/803 323/596/804
s 17
f 413/560/805 323/559/806 356/561/807 365/562/808
s 19
f 404/568/809 396/567/810 349/569/811 363/570/812
s off
f 363/643/813 395/639/814 381/632/815 404/637/816
s 22
f 366/635/817 405/636/818 406/627/819 380/630/820
s off
f 385/658/821 364/665/822 403/659/823 384/652/824
s 23
f 412/647/825 413/653/826 365/648/827 383/641/828
s 19
f 405/566/705 347/565/704 396/567/810 404/568/809
s 22
f 406/627/819 405/636/818 404/637/829 381/632/830
s 20
f 341/631/760 407/628/727 406/627/726 381/632/761
s 4
f 341/547/688 320/548/687 408/544/677 407/543/676
s 1
f 340/584/831 415/579/832 414/575/833 320/581/834
f 415/579/832 321/580/835 319/576/836 414/575/833
s 4
f 411/517/606 410/516/605 319/519/612 328/520/615
s 20
f 412/647/735 411/646/734 328/651/736 384/652/739
s 23
f 403/659/837 413/653/826 412/647/825 384/652/838
s 17
f 403/558/697 402/557/696 323/559/806 413/560/805
s 1
f 414/575/833 319/576/836 410/572/593 409/571/592
f 320/581/834 414/575/833 409/571/592 408/577/724
f 338/590/839 417/585/840 416/582/841 344/587/842
f 417/585/840 326/586/843 322/583/844 416/582/841
f 416/582/841 322/583/844 321/580/835 415/579/832
f 344/587/842 416/582/841 415/579/832 340/584/831
f 379/592/845 418/588/846 350/593/847 339/594/848
f 336/591/849 334/589/850 418/588/846 379/592/845
f 418/588/846 334/589/850 326/586/843 417/585/840
f 350/593/847 418/588/846 417/585/840 338/590/839
